<?xml version="1.0" standalone="no"?>
<!DOCTYPE svg PUBLIC "-//W3C//DTD SVG 1.1//EN" "http://www.w3.org/Graphics/SVG/1.1/DTD/svg11.dtd" >
<svg xmlns="http://www.w3.org/2000/svg" xmlns:xlink="http://www.w3.org/1999/xlink" version="1.1">
<metadata></metadata>
<defs>
<font id="ww" horiz-adv-x="1173" >
<font-face units-per-em="2048" ascent="1638" descent="-410" />
<missing-glyph horiz-adv-x="774" />
<glyph horiz-adv-x="0" />
<glyph unicode="&#xd;" horiz-adv-x="0" />
<glyph unicode=" "  horiz-adv-x="774" />
<glyph unicode="&#x09;" horiz-adv-x="774" />
<glyph unicode="&#xa0;" horiz-adv-x="774" />
<glyph unicode="!" horiz-adv-x="1108" d="M-62 164q0 74 34 112q52 64 136 102t160 38q40 0 68 -12q70 -32 70 -148q0 -86 -48 -146q-46 -58 -124 -90t-150 -32q-36 0 -68 10q-36 15 -57 62t-21 104zM123 574q38 101 56.5 147.5t38 89.5t44.5 107q34 82 162 362q56 126 90.5 223t42.5 119q71 64 197 64 q82 0 143.5 -37.5t79.5 -114.5q-44 -88 -79.5 -147t-68.5 -105t-81 -113t-96 -145q-60 -96 -102.5 -161.5t-70 -105.5t-63.5 -89.5t-98 -137.5q-20 -28 -50 -28q-15 0 -34 9t-58.5 32t-52.5 31z" />
<glyph unicode="&#x22;" horiz-adv-x="1063" d="M104 1052q4 183 140 392q50 80 49 164q0 14 -1 34.5t-1 30.5q1 50 25 74q42 41 98 41q62 0 156 -52q10 -33 36.5 -84t26.5 -77q-22 -80 -45.5 -128.5t-89.5 -170.5q-65 -122 -111 -222q-28 -63 -82.5 -102.5t-104.5 -39.5q-96 0 -96 140zM576 1038q0 34 9.5 53t40 73 t60.5 136q28 74 34.5 141.5t10.5 103.5q4 37 31 63q50 52 120 51q59 0 142 -41q12 -32 51 -89t39 -75q-22 -77 -41 -110.5t-91.5 -146.5t-123.5 -214q-25 -51 -69.5 -80t-88.5 -29q-54 0 -89 42q-35 40 -35 122z" />
<glyph unicode="#" horiz-adv-x="1413" d="M-6 559q0 12 4 37q56 54 309 62q33 70 65 143q-50 -9 -75 -9q-52 0 -90 25q-16 23 -41.5 57t-37.5 59t-12 56q0 10 5 37q24 24 79 37t110 17q54 4 184 10q34 86 63 172t51 153q32 95 107 95q32 0 61 -23q38 -28 62 -94q24 -65 24 -137q-23 -96 -49 -138q32 2 77.5 5 t69.5 3q66 180 78 226q36 96 109 96q29 0 59 -22q35 -28 62 -90q28 -62 28 -114q0 -12 -4 -28q-12 -50 -18 -72q28 -2 66 -10q72 -17 105 -36.5t33 -57.5q0 -19 -4 -31q0 -40 -95 -68.5t-247 -40.5q-6 -10 -12 -24q-22 -43 -42 -83.5t-36 -70.5q124 -7 174 -18 q72 -17 106 -36.5t34 -57.5q0 -18 -4 -31q0 -46 -122 -74.5t-300 -38.5q-3 -6 -55.5 -109t-86.5 -189q-36 -62 -58 -81.5t-74 -19.5q-32 8 -56 13.5t-39.5 20t-15.5 44.5q0 26 10 57q-1 0 113 258q-130 -6 -140 -6q-24 -2 -69 -10q-63 -116 -101 -215q-36 -62 -58 -81.5 t-74 -19.5q-32 8 -56.5 14t-40 20t-15.5 44q0 26 11 58q2 0 51 118q-57 0 -92 27q-16 23 -41 57.5t-37 59t-12 55.5zM576 678q37 4 79 7q41 3 125 9q24 50 44 92q2 5 7 16.5t13.5 30.5t15.5 35q-176 -4 -196 -6q-26 -56 -49 -100.5t-39 -83.5z" />
<glyph unicode="$" horiz-adv-x="1110" d="M39 520q1 48 25 94q26 44 42 50q16 0 25 -10t19 -31t15 -29t17 -12q13 -6 51.5 -14.5t100.5 -8.5q74 1 137 13q351 64 441 206q0 8 -10 11t-36 5t-38 4q-36 4 -82 6t-92 3q-12 0 -33 1t-31 1q-88 0 -182 -10q-94 -11 -113 -11q-47 0 -99 71t-52 130q10 58 20 84 q11 25 45 65q154 170 379 258q40 52 46.5 104t10 101t27.5 70q28 25 61 25q54 0 119 -52q2 -10 21.5 -53t19.5 -69q-17 -42 -27 -68q10 -1 30 -2.5t34 -3t24 -2.5q42 -4 66.5 -14t39.5 -38q16 -30 24 -86q4 -28 4 -38q0 -73 -58 -76q-18 0 -57 14q-5 2 -25 19t-26 18 q-32 7 -74 7q-96 0 -180 -32q-148 -53 -275 -198q28 1 141.5 3.5t180.5 6.5q58 0 158.5 -20t148.5 -48q32 -17 45.5 -58.5t20.5 -115.5q0 -92 -70.5 -171.5t-165 -133t-172.5 -75.5q-66 -18 -152 -40q-6 -10 -42 -65t-68 -113q-25 -44 -66 -72q-42 -28 -76 -28q-56 0 -55 96 q3 32 5 54t8 47t22 55q-42 4 -60 8q-24 2 -82 16q-34 22 -54.5 63.5t-20.5 88.5z" />
<glyph unicode="%" horiz-adv-x="1335" d="M-8 62q0 60 47 132q56 61 183 202.5t304.5 351.5t311.5 388q11 16 97.5 128.5t133.5 179t69 118.5q52 82 118 82q36 0 59 -28q25 -32 25 -68q0 -38 -21 -80q-30 -58 -70.5 -115t-102 -129t-117 -136.5t-105.5 -129.5q-43 -56 -84.5 -103t-128.5 -144.5t-129 -148 t-86 -114.5t-108 -134t-124 -137t-110 -140q-54 -63 -86 -63q-18 0 -48 22q-28 22 -28 66zM196 1220q0 106 68 197q108 139 304 183q34 6 69 6q68 0 116.5 -24t55.5 -76q2 -18 2 -58q-3 -129 -61 -211q-74 -110 -134 -150.5t-164 -74.5q-36 -12 -73 -12q-109 0 -151 86 q-32 62 -32 134zM322 1266q0 -77 108 -80q132 0 203 80q23 28 23 94q0 24 -38 39.5t-71 17.5q-165 -1 -217 -115q-8 -16 -8 -36zM584 158q4 128 61 210q79 116 132 158.5t145 73.5q34 12 72 12q58 0 105 -25t69 -67q30 -60 30 -135q0 -107 -68 -197q-106 -139 -302 -182 q-34 -6 -70 -6q-68 0 -116 24t-56 76q-2 18 -2 58zM748 246q0 -24 37 -40t71 -18q166 0 217 115q7 17 7 33q0 33 -28 57q-30 24 -88 27q-122 0 -194 -80q-22 -28 -22 -94z" />
<glyph unicode="&#x26;" horiz-adv-x="1528" d="M-18 213q0 64 26 138t76 146.5t119 137.5q132 129 229 189q-6 4 -34 19t-48 29.5t-34 31.5t-15 34q-2 16 -2 47q0 68 27.5 116.5t111.5 133.5q96 98 183 162t179.5 105t223.5 77q82 23 152 23q116 0 187 -56t71 -160q0 -16 -4 -48q-30 -158 -154 -158q-24 0 -47 6 q-35 8 -35 72q0 20 6 38q-44 84 -152 84q-82 0 -183 -45t-191 -108q-12 -15 -47 -39t-55 -48t-30 -67q0 -48 23 -66t66 -18q24 1 61 5q26 2 64.5 20.5t69.5 27.5q32 10 94 12q58 0 86 -20q26 -20 36 -66q10 -52 10 -60q0 -70 -114 -78q-60 -3 -154.5 -35.5t-199 -86.5 t-190.5 -120t-132 -136q-47 -71 -47 -116q0 -28 14.5 -47t39 -31.5t62 -23t46.5 -13.5q74 -6 102 -6q289 -1 492 145q38 27 51 68q-77 -20 -133 -20q-39 0 -57 12q-36 26 -61 67t-25 76q0 31 22 51q24 28 76 42.5t165 29t119 14.5q40 6 137 34t140 28q53 0 71 -35 q10 -26 21 -49.5t15 -36.5t4 -27q0 -16 -6 -40q0 -50 -228 -84q10 -22 10 -42q0 -48 -57 -110q-92 -98 -168.5 -153t-146.5 -83t-158 -48q-86 -20 -192 -44q-156 -36 -277 -36q-195 0 -269 98q-42 58 -42 141z" />
<glyph unicode="'" horiz-adv-x="841" d="M158 1098q4 41 6.5 68.5t13 60.5t38.5 78.5t77 107.5q46 58 54 113.5t12 107.5t30 74q38 35 88 35q66 0 162 -70q5 -19 29 -72.5t24 -86.5q-30 -82 -50 -117t-81 -125t-121 -197q-32 -58 -85 -92.5t-101 -34.5q-96 0 -96 150z" />
<glyph unicode="(" horiz-adv-x="985" d="M-45 426q0 159 59 332q58 174 174 336q164 232 346.5 373t399.5 202q36 11 60 11q55 0 72 -29q16 -29 54 -123q6 -16 6 -29q0 -34 -35 -48.5t-99 -21.5t-76 -9q-120 -27 -247 -95.5t-243 -190.5t-196 -298q-56 -122 -56 -256q0 -104 33 -188t82 -128q6 -5 29.5 -26.5 t45.5 -35.5t56 -26q34 -10 86 -18q82 -10 114 -57t38 -77q8 -30 8 -61q0 -68 -54 -92.5t-160 -24.5q-78 4 -166.5 43t-164.5 110t-117 165q-49 117 -49 262z" />
<glyph unicode=")" horiz-adv-x="889" d="M-156 70q0 -30 21 -62q51 -80 119 -80q34 0 86 21q142 54 260 150.5t214 216.5t200 284q164 254 164 536q0 54 -13 174q-22 165 -151.5 263t-251.5 125q-86 14 -111 14q-133 0 -133 -127q2 -86 27 -113.5t69 -27.5h35q13 0 35 -4q332 -72 332 -332q-30 -268 -348 -637 q-178 -207 -474 -311q-80 -26 -80 -90z" />
<glyph unicode="*" horiz-adv-x="1044" d="M51 1065q0 44 49 87q50 42 140 95q-9 7 -45.5 20t-48.5 21q-72 50 -72 86q0 18 9 32t40 54q23 41 61 41q50 0 162 -88q0 96 9 148.5t45 52.5q64 20 86 20q12 0 63 -4q47 -22 47 -96q0 -38 -10 -88q52 23 106 41q18 6 33 6q32 0 56.5 -26t58.5 -87q-4 -18 -5.5 -34 t-3.5 -26t-12 -26q-67 -68 -165 -108q68 -43 89 -58.5t43 -45.5q28 -42 29 -50q0 -16 -55 -80q-38 -44 -74 -44q-8 0 -32 4q-16 6 -74.5 46t-61.5 42q-2 -18 -6.5 -65t-11 -77t-16.5 -41q-80 -23 -91 -23q-19 0 -75 23q-32 31 -32 97q0 26 13 102q-16 -10 -41 -29 q-62 -45 -100 -45t-82 68q-25 28 -25 55z" />
<glyph unicode="+" horiz-adv-x="1044" d="M114 712q0 38 11 93q30 36 97.5 48.5t205.5 24.5q0 8 3 93t7 119q2 34 14 63q26 61 103 61q28 0 82 -10q12 -15 40 -36.5t35 -45.5q2 -20 3 -61q-1 -66 -9 -127q92 26 134 26q58 0 80 -38q10 -60 10 -80q0 -30 -16 -94q0 -48 -66 -69t-190 -36q-24 -126 -34 -252 q-6 -68 -28 -93q-24 -24 -66 -24q-7 0 -19.5 1t-25.5 3t-20 2q-97 0 -97 132q0 41 21 176q-118 -43 -170 -43q-43 1 -69 23q-36 64 -36 144z" />
<glyph unicode="," horiz-adv-x="575" d="M-144 -190q4 41 7 68.5t13.5 61t38.5 79t77 108.5q45 58 51.5 91.5t12.5 107t32 96.5q38 34 88 34q65 0 162 -69q6 -22 29.5 -74.5t23.5 -84.5q-30 -82 -50.5 -117t-81.5 -126.5t-119 -195.5q-32 -58 -85.5 -92.5t-103.5 -34.5q-95 0 -95 148z" />
<glyph unicode="-" d="M84 782q0 24 6 56q30 36 97 54t201 34q132 17 152 20q196 29 250 29q70 -1 146 -21q67 -20 109.5 -65t42.5 -113q-2 -41 -60 -68.5t-136.5 -44t-187 -33.5t-139.5 -26q-58 -18 -114.5 -35.5t-99.5 -27t-79 -9.5q-66 0 -104 33q-20 36 -40.5 73.5t-32 71.5t-11.5 72z" />
<glyph unicode="." horiz-adv-x="686" d="M-12 98q0 44 18 107q22 70 60 129.5t71 65.5q14 2 48.5 41t46.5 41q18 4 54 4q72 0 115 -36t43 -106q0 -35 -16 -90q-34 -106 -102 -186t-150 -94q-34 -6 -57 -7q-131 -1 -131 131z" />
<glyph unicode="0" horiz-adv-x="1601" d="M2 422q0 254 154 518q61 105 143.5 203.5t177 177.5t199.5 135q104 57 204 80q96 22 187 22q146 0 255.5 -66t153.5 -206q62 -194 62 -326q0 -168 -82 -332q-78 -154 -159.5 -260t-169 -178t-178.5 -119t-211 -89q-168 -60 -304 -60q-228 0 -340 166q-92 140 -92 334z M221 469q0 -66 24.5 -115.5t66.5 -69.5q49 -12 110 -12q78 0 167.5 23t191.5 80t200 155q86 86 155.5 178.5t115 188t56.5 185.5q0 84 -50 114.5t-138 30.5q-50 -1 -102 -7q-78 -7 -175 -44.5t-200 -103.5t-197 -163q-96 -97 -164 -221q-62 -114 -61 -219z" />
<glyph unicode="1" horiz-adv-x="612" d="M-28 80q0 41 12 96q46 118 141 368t197 531q9 22 18.5 50.5l17.5 52.5q-48 -18 -72 -19q-36 -1 -86 47q-72 63 -71 113q0 39 40.5 70t107.5 59t149 64t125 69q31 23 57 23q40 0 71 -42t47 -103t16 -115q-20 -80 -32 -108t-46 -102t-70 -166q-29 -74 -90.5 -201 t-86.5 -181q-25 -56 -53 -138q-22 -68 -42.5 -130t-41.5 -126q-20 -64 -52 -166q-30 -65 -68 -105t-74 -40q-42 -1 -78 63q-36 89 -36 136z" />
<glyph unicode="2" horiz-adv-x="1472" d="M-142 194q32 70 140.5 164t243 188t259.5 172t181 112q420 258 502 409q6 13 6 21q0 14 -50 14q-18 0 -55.5 1t-58.5 1q-82 0 -162.5 -15t-184.5 -63q-105 -48 -229 -139q-58 0 -130 33.5t-99 62.5q-75 82 -75 115q0 43 92 98q29 18 93.5 49t147.5 64.5t158 54.5 q232 68 420 68q77 0 227 -10q47 -9 94.5 -58.5t78 -124.5t30.5 -155q-1 -58 -19 -118q-32 -95 -78 -162.5t-125.5 -131.5t-205.5 -140q-127 -76 -357 -204q-103 -58 -270 -184q247 56 414 69q44 4 105 16.5t89 12.5q82 0 182 -92q90 -85 91 -142q0 -60 -82.5 -88t-182.5 -28 h-106q-198 0 -467 -50q-53 -10 -113.5 -30t-140 -50t-122.5 -43.5t-77 -13.5q-24 1 -36 9q-44 30 -86 122t-42 186z" />
<glyph unicode="3" horiz-adv-x="1423" d="M12 232q0 64 22 114t54 50q42 0 84 -91q75 -36 116.5 -49.5t96.5 -13.5q67 0 180 26q112 26 224.5 90t166.5 132q30 36 31 55q-1 35 -111 35q-8 0 -27 -1t-30 -1q-46 -2 -91.5 -7.5t-86.5 -13t-85 -16.5t-114 -23q-46 0 -88 37t-69 92t-27 103q0 78 70 92q132 26 189 42 q57 14 216 72q89 31 206 85.5t203.5 112.5t86.5 102q-10 24 -62.5 42.5t-134.5 18.5q-110 0 -243.5 -38.5t-280.5 -121.5q-42 -54 -66 -77t-49 -23q-54 0 -139 139q-24 40 -24 78q0 54 43 98t116 72q20 8 106.5 46t154.5 59q70 21 180 36q154 21 264 21q182 0 282 -54 q118 -60 119 -210q1 -170 -145 -306q-90 -88 -254 -198q73 -13 110 -50q38 -37 60 -139q4 -14 4 -47q0 -85 -51 -196.5t-143 -211.5t-208 -157q-144 -72 -232 -99.5t-165 -27.5q-48 0 -131 14q-92 16 -146 36.5t-85 47t-42 48.5t-41 88q-14 34 -14 88z" />
<glyph unicode="4" horiz-adv-x="1474" d="M-24 565q0 25 10 49q74 85 310.5 282t495 392.5t398.5 280.5q64 39 100 39q24 0 38 -14t40 -46q34 -14 62 -58t28 -91q0 -19 -6 -37q-34 -71 -60.5 -137t-43 -117.5t-35.5 -118.5t-45 -149q-12 -38 -16 -54q75 0 108 -26q34 -26 64 -100q22 -55 22 -97q0 -46 -35 -66.5 t-88 -25.5t-187 -10q-52 -128 -104 -328q-20 -76 -39 -105t-64 -63q-45 -33 -75 -61q-28 -24 -62 -25q-42 0 -77 30.5t-35 66.5q0 12 6 24q14 70 34 128t60 163t52 149q-107 -17 -216.5 -32.5t-169 -26.5t-124 -30t-160.5 -58q-48 12 -91 57.5t-69 105.5t-26 109zM434 662 q95 22 218.5 42t275.5 46q108 282 135 374q-110 -68 -220.5 -142t-220.5 -160q-111 -84 -188 -160z" />
<glyph unicode="5" horiz-adv-x="1384" d="M-90 274q0 56 37 98q43 50 65 50q17 0 39 -43t33.5 -59t42.5 -19q74 -51 168 -51q89 0 239 51q166 57 300.5 146t181.5 184q0 22 -8.5 27.5t-28.5 5.5q-6 0 -31.5 -1t-48.5 -1q-32 2 -90 2q-100 0 -182.5 -16t-162.5 -44.5t-241 -93.5q-12 -4 -20 -4q-38 0 -79.5 42.5 t-69.5 104t-28 111.5q4 40 105 215t211 336t152 182q53 26 116.5 37.5t178.5 22t135 12.5q64 7 176 25.5t164 19.5q56 0 135 -18q50 -12 84.5 -66t34.5 -119q0 -71 -48 -125q-54 -57 -69 -57q-3 0 -39 21.5t-94 25.5q-57 0 -139.5 -5t-174.5 -15t-184 -22q-92 -14 -146 -24 q-116 -120 -218 -300q134 48 291 72t253 24q124 -4 199.5 -29t111 -81t35.5 -152q0 -6 -1 -20t-1 -22q-5 -90 -56.5 -195.5t-131.5 -200.5q-80 -94 -160 -150q-318 -220 -588 -220q-164 0 -309 76q-139 160 -139 262z" />
<glyph unicode="6" horiz-adv-x="1419" d="M-56 246q0 138 45 286t147 309q104 161 272 325q196 190 378 304q181 114 324 128q50 0 82 -17t50 -43t31 -66t21 -65q6 -18 6 -37q0 -51 -30.5 -92t-71.5 -41q-36 0 -70 39q-18 12 -44 12q-34 0 -94 -24t-66 -25q-190 -88 -298 -179t-186 -208q116 78 240 130t236 75 q78 16 145 16q120 0 194 -51t81 -162q0 -94 -19.5 -176t-63 -159.5t-115.5 -149.5q-114 -116 -216 -192.5t-216 -129t-260 -92.5q-104 -31 -192 -31q-146 0 -228 81.5t-82 234.5zM236 316q48 -46 128 -46q116 0 276 79t294 175q10 11 44.5 35.5t52.5 50.5t26 74 q-1 68 -89 68q-42 0 -98 -8q-56 -6 -138.5 -32t-175 -75.5t-179.5 -130.5q-87 -80 -141 -190z" />
<glyph unicode="7" horiz-adv-x="1116" d="M-51 6q0 58 98 170q122 174 224.5 312t202 262t200 242t231.5 266q-114 0 -257 -20q-144 -20 -298 -60q-12 -3 -27 -24t-28 -32.5t-43 -15.5q-48 12 -76 35t-41 46t-47 101q-6 12 -6 29q0 48 43 103t88 67q379 96 553 102q154 7 276 7q200 0 236 -34q39 -80 39 -130 q0 -31 -12.5 -59.5t-34.5 -55.5t-65 -72t-83 -86q-194 -203 -468 -561q-76 -99 -136 -186.5t-103 -157.5t-64 -108t-37 -66q-48 -78 -116 -120q-66 -42 -126 -42q-30 0 -50 8q-74 30 -73 80z" />
<glyph unicode="8" horiz-adv-x="1571" d="M-64 178q0 204 234 428q72 66 156 125q-94 64 -96 113q0 116 39 209t135 188q148 150 276 224.5t328 130.5q88 24 166 24q133 0 213.5 -67t80.5 -189q0 -15 -4 -56q-28 -184 -154 -333q124 -47 150 -156q18 -80 18 -141q0 -168 -136 -310q-126 -132 -247 -212t-243 -125 q-120 -45 -278 -82t-281 -37q-221 0 -307 112q-50 64 -50 154zM254 324q0 -20 12 -35t30 -23t38 -14t45 -12q34 -6 98 -6q274 0 463 136q90 65 166 152.5t86 153.5q-8 49 -72 49q-15 0 -55.5 -4.5t-66.5 -5.5q-86 -5 -235 -46t-283.5 -109t-190.5 -152q-35 -52 -35 -84z M494 968q2 -42 53 -42q19 0 57 7t54 9q196 18 338 123q78 58 124 99t74 100q-40 58 -127 57q-82 0 -186.5 -45.5t-186.5 -103.5q-11 -11 -67 -53t-90.5 -77.5t-42.5 -73.5z" />
<glyph unicode="9" horiz-adv-x="1323" d="M-4 258q0 78 70 78q56 0 126 -58q26 -20 76 -20q34 0 154 24q136 48 217.5 93t138 103.5t115.5 152.5q-183 -113 -447 -166q-62 -15 -132 -15q-127 0 -211.5 55.5t-92.5 168.5q0 88 23.5 178t71 174t114.5 152q120 120 210.5 191.5t192.5 120.5t250 91q75 23 158 23 q82 0 151 -26t119 -73.5t77.5 -113.5t27.5 -146q0 -136 -52.5 -306.5t-164.5 -352.5q-112 -180 -278 -342q-72 -71 -136 -120.5t-127.5 -83.5t-129 -52t-142.5 -23q-71 -4 -95 -4q-78 0 -121 18t-74 64q-31 45 -71 139q-18 42 -18 76zM299 842q0 -60 94 -60q9 0 25.5 1 t33.5 3t25 2q90 9 207.5 46.5t225.5 117.5q74 54 126 110t84 136q-56 90 -190 90q-99 0 -214 -46q-116 -46 -212 -114q-36 -32 -85 -75.5t-84.5 -97t-35.5 -113.5z" />
<glyph unicode=":" horiz-adv-x="753" d="M-12 96q0 42 18 102q20 66 57 124.5t70 64.5q13 2 47 40t46 40q26 6 56 6q67 0 108.5 -35t41.5 -102q0 -36 -16 -90q-31 -99 -99.5 -177.5t-146.5 -92.5q-37 -4 -51 -4q-131 0 -131 124zM80 762q0 44 18 102q20 68 57 125t71 63q10 2 28 21l36 38t28 21q28 6 57 6 q67 0 108 -35t41 -101q0 -32 -16 -90q-32 -100 -100 -178t-146 -93q-37 -4 -51 -4q-131 0 -131 125z" />
<glyph unicode=";" horiz-adv-x="753" d="M-140 -186q4 34 8 66t14 61t37 74t73 106q44 57 52 111t12 104t30 74q40 32 86 32q66 0 158 -65q6 -28 27.5 -79t21.5 -79q-22 -60 -42.5 -99.5t-63.5 -103.5t-67 -100t-73 -123q-32 -56 -83.5 -89.5t-98.5 -33.5q-91 0 -91 144zM80 762q0 44 18 102q20 68 57 125t71 63 q10 2 28 21l36 38t28 21q28 6 57 6q67 0 108 -35t41 -101q0 -32 -16 -90q-32 -100 -100 -178t-146 -93q-37 -4 -51 -4q-131 0 -131 125z" />
<glyph unicode="&#x3c;" horiz-adv-x="1409" d="M12 788q0 46 13 74t41 48t79 45t133 65q197 98 333.5 180t218.5 141t137 108.5t61 53.5q106 80 217 80q73 -1 111 -35q43 -40 43 -76q0 -59 -154 -153q-101 -62 -213 -131.5t-196 -119t-187 -106t-260 -141.5q66 -108 236.5 -253.5t330.5 -231.5q29 -15 102.5 -28.5 t107.5 -33.5q26 -42 26 -76q0 -29 -13 -50q-13 -20 -57 -86q-22 -31 -70 -52q-48 -20 -96 -20q-28 0 -55 10q-51 24 -130.5 68.5t-166.5 100.5q-86 55 -152 107q-98 76 -194.5 169t-162 168.5t-79.5 103.5q-4 53 -4 71z" />
<glyph unicode="=" d="M33 538q0 24 6 56q31 35 97 53.5t200 35.5t154 19q194 28 250 29q72 -1 144 -21q66 -20 109 -65t43 -113q-2 -41 -60 -68.5t-136 -43.5t-187 -33t-139 -27q-69 -22 -117.5 -36.5t-92.5 -24.5t-83 -10q-67 1 -105 33q-16 28 -38 69t-33.5 75t-11.5 72zM127 1042q0 24 6 56 q30 36 96.5 54t184.5 32q120 14 170 22q200 28 250 29q72 -1 145 -21q67 -20 109 -65t42 -113q-2 -41 -60 -68.5t-131 -43t-187 -32.5q-114 -18 -144 -28q-70 -22 -120 -37t-93 -25t-79 -10q-66 0 -105 34q-20 36 -40.5 73t-32 71t-11.5 72z" />
<glyph unicode="&#x3e;" horiz-adv-x="1409" d="M-70 168q0 31 37 66.5t117 85.5q143 88 240.5 147t179.5 107t183 104t253 137q-108 153 -635 405q-8 4 -14 4q-8 0 -25.5 -5t-29.5 -5q-25 0 -60 21q-32 50 -32 98q0 35 30 141q11 36 60.5 59t105.5 23q32 0 58 -10q92 -20 247 -94t254 -152q114 -88 200.5 -162t144 -131 t71.5 -83q4 -53 4 -72q0 -46 -12.5 -75t-40 -48.5t-106 -57t-108.5 -53.5q-198 -99 -335 -181t-215.5 -139t-136 -108t-62.5 -55q-104 -79 -217 -79q-72 0 -112 36q-44 40 -44 76z" />
<glyph unicode="?" horiz-adv-x="1216" d="M144 1329q0 90 41 165.5t124 94.5q80 32 238.5 56t292.5 24q105 -4 223 -36.5t203.5 -86.5t105.5 -118q10 -28 10 -76q0 -54 -18 -112t-54 -119t-84 -118t-112 -108q-121 -100 -218.5 -163.5t-239.5 -129.5q-60 -27 -143 -75.5t-124 -61.5q-62 0 -106.5 78.5t-44.5 162.5 q0 104 67 122q47 12 83 31t110 46q148 53 226 85t149 71t147 96q66 47 66 101q0 48 -68 65q-89 23 -168 23q-188 0 -432 -119q-57 -50 -96.5 -77.5t-75.5 -27.5q-82 0 -100 166q-2 12 -2 41zM182 88q0 57 35 129q44 92 123 159q78 66 131 68q82 0 134.5 -36.5t52.5 -104.5 q0 -53 -32 -109q-49 -96 -131 -163.5t-157 -67.5q-72 0 -114 32t-42 93z" />
<glyph unicode="@" horiz-adv-x="1548" d="M-26 574q0 144 56 284q68 164 146 278t163 190t179.5 126t214.5 94q167 64 313 64q230 0 361 -168q133 -172 133 -420q0 -236 -118 -477q-52 -108 -104 -146.5t-130 -54.5q-85 0 -147 46q-63 46 -73 138q-36 -34 -84 -78.5t-92 -77t-95 -53.5t-107 -24q-68 0 -110 22.5 t-66 55.5t-58 98q-22 49 -22 107q0 76 31 162t81 155q53 72 92.5 110.5t123.5 100.5q136 104 206 123q30 4 46 8q24 6 48 6q56 0 103.5 -29.5t76 -83.5t28.5 -126q-2 -62 -18 -133q-18 -71 -20 -107q0 -64 8 -95t38 -47q12 -4 16 -4q42 0 74 122q6 16 12 42t6 29 q16 60 16 137q0 85 -24.5 166t-66 136.5t-89.5 74.5q-64 25 -147 25q-101 0 -211 -38t-214 -118q-104 -78 -180 -196q-48 -76 -82 -160t-54 -172q-19 -88 -19 -172q1 -56 11 -115q32 -114 139 -171.5t237 -57.5q38 0 54 2q56 6 79 17t78 50q79 57 137 57q50 0 78 -42 q24 -40 24 -86q0 -90 -81 -124q-44 -39 -70 -56.5t-46 -24.5t-66.5 -15t-76.5 -16q-98 -24 -198 -24q-148 0 -265 65t-177 209q-98 236 -98 412zM555 662q1 -38 31 -58q36 -28 74 -28q115 0 243 194q30 60 36.5 85t6.5 83q-13 47 -53 47q-28 -1 -74 -25 q-103 -61 -131.5 -84.5t-83.5 -97.5q-5 -10 -17.5 -32t-21.5 -43t-10 -41z" />
<glyph unicode="A" horiz-adv-x="1566" d="M-274 129q0 105 78 189q76 82 146 152.5t125 126t122 126.5t139 153q108 124 172 192t133 142q126 138 293 352q86 118 200 118q65 0 138 -44q64 -39 86 -55.5t33.5 -41.5t11.5 -67q-1 -32 -25 -222q-11 -94 -14.5 -172.5t-5.5 -168t-3 -146.5t-7 -107q-22 -212 -23 -382 q0 -110 4 -172q-10 -84 -46.5 -123t-86.5 -39q-60 0 -116 45t-68 99q-10 26 -10 64q0 35 17 119.5t17 134.5q-88 0 -237 -26t-301 -63t-266 -73q-104 -86 -164 -174q-18 -28 -42 -72q-23 -44 -34 -60q-44 -36 -88 -36q-46 0 -87 32t-66 86t-25 113zM555 641q139 34 209 39 q35 3 92 15.5t122 26.5q65 16 99 20q9 48 9 120q0 58 -25 328q-63 -46 -93 -78q-26 -28 -94 -113q-70 -85 -94 -115q-18 -20 -100 -105t-125 -138z" />
<glyph unicode="B" horiz-adv-x="1614" d="M-184 172q0 28 9 55.5t29 65.5t30 60q10 23 16 55q6 40 36 102q25 50 55 120q29 68 33 76q-4 34 -4 50q0 156 128 202q16 38 39 90.5t57 125.5q33 72 59 134q-39 48 -39 105q0 51 33 93t78 58q72 28 153.5 45.5t170.5 26.5t241 19q66 4 96 4q142 0 271 -25.5t217 -58.5 q64 -23 98.5 -74t34.5 -119q0 -74 -43 -150q-42 -76 -127 -142q-93 -72 -183 -107q87 -29 131.5 -82t67.5 -149q7 -24 7 -52q0 -104 -91 -207t-226 -190t-276 -153t-243 -101q-118 -39 -406 -111q-71 -18 -147 -18q-103 0 -179 41q-24 27 -63 75t-53 74q-10 28 -10 62z M172 312q116 3 286.5 45t362.5 118q322 130 379 207q0 10 -4 14q-72 36 -312 37q-126 0 -212 -8q-58 -6 -166 -22.5t-160 -24.5q-16 -54 -41 -106t-69 -134t-64 -126zM479 1044q466 77 723 183q27 12 70 18.5t43 14.5q-1 2 -5 6q-14 20 -108 37.5t-219 17.5h-7 q-215 0 -394 -59q-54 -94 -103 -218z" />
<glyph unicode="C" horiz-adv-x="1417" d="M-66 391q0 93 32 202t95.5 232t152 245t204.5 245q186 194 342 277.5t317 91.5q96 0 160.5 -43t95.5 -112t31 -147q0 -66 -22 -126q-30 -77 -79 -118.5t-181 -85.5q-32 8 -32 64q0 23 4 42.5t15 71.5t16 75t5 39q0 26 -23 26q-92 -34 -218.5 -138.5t-256.5 -257.5 q-130 -152 -224 -314q-72 -122 -111.5 -204t-39.5 -157q15 -65 99 -65q54 0 130 26t161 69t165 96q82 53 150 107q136 108 202 109q64 0 72 -94q0 -252 -137 -336q-24 -15 -124.5 -84t-176.5 -104t-218 -74q-92 -27 -172 -27q-94 0 -168.5 37t-131 107t-103.5 170 q-31 67 -31 155z" />
<glyph unicode="D" horiz-adv-x="1505" d="M-125 182q0 18 4 27q34 85 107 270t156 399q84 214 114 292q-58 0 -89.5 18t-31.5 68q1 26 17 84q33 105 92 149q60 43 164 75q228 72 479 72q90 0 176 -6q128 -8 218 -23t161 -57.5t94 -121.5q45 -148 45 -220q-1 -142 -111 -300q-82 -120 -247 -281t-328 -267 q-188 -122 -311.5 -195t-229.5 -124t-238 -105q-12 -4 -20 -4q-42 0 -94 43t-90 103q-37 60 -37 104zM217 320q49 20 108.5 59t159.5 110.5t150 104.5q77 50 162.5 114t168.5 135.5t136 131.5q37 42 98 106.5t87 96.5t26 46q-1 8 -9 11q-224 49 -405 49q-191 0 -331 -51 q-58 -112 -103.5 -232.5t-122.5 -341.5t-125 -339z" />
<glyph unicode="E" horiz-adv-x="1540" d="M-142 80q0 14 7 26q26 60 52.5 113t100.5 198t109 218q36 95 164 319q117 206 157 273q-16 24 -16 61q0 67 55.5 136.5t145.5 105.5q146 29 261.5 60.5t159.5 40.5t166 19q120 0 180 -38t89 -119q21 -60 21 -94q0 -68 -82 -68q-14 0 -47 2.5t-64 2.5q-195 -42 -270 -62 t-279 -80q-52 -54 -119 -152q-21 -38 -41 -82q69 18 189.5 58t204.5 58t180 18q76 0 122 -54.5t46 -107.5q0 -8 -4 -20q-15 -40 -30.5 -62.5t-31.5 -33t-51 -20.5t-43 -12q-78 -22 -154 -42t-159.5 -44t-159 -48.5t-166.5 -59.5q-70 -25 -82 -25q-7 1 -21 5 q-74 -160 -116 -273q60 14 145 40.5t141 41.5q60 15 133 47t129 51t154 33q64 -4 93 -11t57 -31t76 -83q8 -11 8 -25q0 -78 -354 -206q-122 -44 -198.5 -74.5t-187 -76t-203 -83.5t-122.5 -49q-31 -13 -63 -13q-64 0 -130 36t-109 89t-43 97z" />
<glyph unicode="F" horiz-adv-x="1394" d="M-148 98q0 40 13 68q26 46 44.5 95t47.5 129.5t69 168.5q40 89 103 224t99 214t71 160q-29 40 -29 86q0 74 66 162q29 41 87.5 71t90.5 42q332 93 488 128.5t313 41.5q58 0 113.5 -39t90.5 -95t35 -98q0 -20 -10 -36q-30 -47 -69 -64.5t-119 -24.5q-208 -16 -396 -55.5 t-362 -141.5q-20 -32 -37 -55t-27 -40.5t-22 -47.5q-1 -4 -5 -15q-3 -12 -9 -28q189 60 300 87t261 47q79 16 117 16q46 0 74 -17.5t60 -58.5q46 -60 46 -112q0 -104 -186 -105q-49 -17 -176 -52t-226 -67t-212 -83t-224 -126q-36 -68 -63 -122.5t-54 -123.5t-53 -159 q-16 -168 -119 -168q-38 0 -92 22q-48 21 -73.5 70.5t-25.5 101.5z" />
<glyph unicode="G" horiz-adv-x="1628" d="M4 484q0 234 146 510q66 124 159 235.5t191.5 197.5t187.5 144q184 121 369 121q48 0 91.5 -7.5t91.5 -20t52 -14.5q36 -8 61 -26t41 -44t26 -53l30 -81q8 -38 8 -54q0 -46 -24 -77.5t-64 -60t-90 -62.5q-54 -39 -82 -39q-37 0 -37 82q0 15 1.5 44t1.5 54q0 95 -58 95 q-92 -16 -179 -68t-169 -133t-174 -197q-76 -98 -136 -226t-94 -238q-34 -108 -34 -154q0 -58 2 -87t12 -48t34 -27q20 -6 48 -6q80 0 192.5 39.5t196.5 105.5q204 160 303 287q-194 -74 -262 -74q-32 0 -54 8q-79 15 -110.5 40.5t-37.5 60.5t-11 67q0 64 42.5 87.5 t162.5 44.5q120 20 202 42q84 24 236 47t254 23q97 0 100 -24q10 -33 10 -62q0 -52 -28.5 -91t-83.5 -57q-19 -4 -25.5 -7t-16.5 -11t-24 -16q-40 -116 -146 -273t-208 -249q-284 -254 -526 -285q-38 -7 -74 -7q-96 0 -180 45t-193 150q-131 125 -131 349z" />
<glyph unicode="H" horiz-adv-x="1706" d="M-205 28q8 58 39.5 125t101 194t103.5 204q59 132 132.5 272.5t127 242t97.5 203t79 218.5q18 58 55.5 86.5t83.5 28.5q58 0 103 -36q69 -52 69 -132q0 -66 -38 -142q-26 -72 -74.5 -147t-114 -176t-107.5 -187q100 27 248.5 57.5t289 52.5t237.5 34q72 148 114.5 241 t75.5 182.5t57 190.5q52 78 120 78q40 0 77 -26t64.5 -68.5t36.5 -87.5q-19 -85 -49 -155t-69.5 -137.5t-81.5 -138.5t-73 -145q-16 -102 -47 -166q-18 -36 -53 -87t-47 -77q-18 -38 -65 -124t-75 -146t-55 -135q-67 -187 -195 -187q-62 0 -92 26t-30 64q0 32 14 56 q21 65 42.5 113.5t67.5 148.5q47 100 66 152q-198 -22 -326 -48.5t-235 -65t-248 -104.5q-80 -134 -129 -202q-72 -136 -162 -136q-58 0 -92 18t-43 68z" />
<glyph unicode="I" horiz-adv-x="1247" d="M-64 -96q10 22 20.5 128t29.5 170q18 64 63 74q104 20 197 52q136 334 266 616q12 26 59 139t57 139q-156 -24 -169 -24q-48 0 -82 20q-53 24 -53 88q0 41 24 88.5t71 89.5t107 66q90 20 155 30t128 20q58 10 103.5 20t89.5 16t122 14q20 2 58 2q86 0 131.5 -31.5 t70.5 -104.5q20 -54 21 -94q0 -70 -84 -70q-14 0 -47.5 2t-63.5 2q-92 -20 -204 -48q-14 -56 -32 -85t-57 -87t-81 -147q-165 -344 -240 -524q-2 -8 -8 -19q-6 -10 -12 -30q84 12 130 12q52 0 91 -28t59 -67t20 -69q0 -10 -4 -18q-16 -38 -31 -60t-32.5 -33t-50.5 -20 t-43 -12q-134 -37 -231.5 -64t-199.5 -59t-208 -72q-38 -14 -140 -22z" />
<glyph unicode="J" horiz-adv-x="1370" d="M-110 248q0 86 28 184q6 22 50.5 56t98 59t89.5 25q34 0 34 -30q0 -16 -8 -32q-16 -38 -31 -72t-25 -64t-10 -56q0 -72 87 -97q24 -6 51 -6q91 0 189.5 69.5t160.5 163.5q88 135 145 243.5t103 222.5t96 268l8 16q2 6 8 22q-76 -8 -132 -20t-183 -57q-74 0 -130.5 46.5 t-68.5 92.5q-14 52 -14 92q0 100 92 129q81 18 213 43.5t291 57.5q183 38 428 57q199 -1 199 -103q-1 -10 -9 -38q-11 -33 -42.5 -76.5t-64.5 -75.5t-44 -32q-39 0 -197 -32q-38 -116 -76 -221.5t-56 -150t-56.5 -139.5t-52.5 -135q-55 -156 -137 -294t-186 -245t-225 -168 t-249 -61q-130 12 -214 60t-122 124t-38 174z" />
<glyph unicode="K" horiz-adv-x="1560" d="M-156 164q0 70 23 120q32 68 51.5 104t47.5 80q27 44 40 70q60 120 162 365q20 47 50 112t67.5 144t62.5 143t39 126q10 59 20.5 114.5t35 94.5t73.5 39q30 0 66 -15q79 -33 113 -72t34 -92q-1 -53 -27 -115q-34 -138 -128 -307q-28 -45 -60 -109l-6 -12q66 42 168 115 t127 90q216 147 397 309q42 38 107 100t83 74q77 56 142 56q58 0 106 -46q14 -14 14 -44q0 -61 -51 -152t-110 -133q-116 -82 -213 -154.5t-177.5 -136.5t-204.5 -165t-190 -155q154 -62 422 -270q112 -88 187 -98q70 -9 98.5 -21.5t28.5 -60.5q0 -6 -4 -32 q-16 -86 -78 -128t-148 -42q-76 0 -149 30q-93 37 -218.5 113.5t-182 106.5t-180.5 67q-98 29 -162 29q-28 0 -62 -8q-12 -22 -52.5 -93t-60 -114t-39.5 -107q-18 -64 -62 -119t-89 -55q-41 0 -69 51q-42 104 -42 203z" />
<glyph unicode="L" horiz-adv-x="1261" d="M-80 297q25 58 57.5 125t72.5 146.5t93 180.5t66 127q50 96 101.5 206t86.5 191.5t61 146.5q28 65 32 75q66 203 136 203q54 0 112 -102q40 -74 40 -132q0 -42 -17 -84t-59 -110q-90 -150 -144 -258.5t-82.5 -177t-82 -205.5t-104.5 -248q88 27 219 48t200.5 37t157.5 64 q76 44 121 44q57 0 57 -68q0 -34 -22 -104q-26 -77 -71 -118.5t-119 -69.5t-262 -83q-96 -28 -202.5 -76.5t-158.5 -95.5q-68 -61 -121 -61q-28 0 -52 14t-52 39q-30 25 -44 35q-77 28 -77 106q0 74 57 205z" />
<glyph unicode="M" horiz-adv-x="1777" d="M-192 98q0 74 20 123q22 52 39 115.5t25 89.5q32 94 72.5 164.5t128 210t124.5 219.5q20 40 121 288q10 25 25.5 77.5t28 88.5t33.5 70t52 60q47 38 129 38q57 0 112.5 -17t86.5 -44q71 -81 71 -161q0 -38 -18 -111t-24 -119q-10 -99 -20 -171.5t-22 -146.5 q-12 -76 -14 -90q-6 -50 -6 -100q0 -46 6 -123l8 11q24 30 71 86t80 97.5t65.5 90t60 102.5t59 143t56 157t59.5 126q49 84 66 112t50 64t76.5 58t100.5 22q213 -6 213 -170q-1 -24 -9 -66q-4 -20 -13 -48t-11 -36q-46 -174 -60 -289t-18 -257q-4 -147 -16 -270 q-12 -124 -50 -304q-11 -51 -42.5 -107.5t-73 -96.5t-80.5 -42q-44 -10 -70 -10q-97 0 -139 101q7 101 43 235q48 164 48 304q0 88 -21 153q-70 -113 -207 -311q-56 -80 -94.5 -151t-79.5 -179q-112 -123 -250 -123h-3q-102 0 -159 61q-24 36 -24 97q0 23 4 81 q10 138 10 238q0 82 -2 130q0 78 37 335q-80 -128 -151 -280.5t-120 -291.5q-50 -139 -76 -249q-9 -42 -37.5 -84t-67.5 -69t-79 -27q-20 0 -44 10q-39 18 -59.5 70t-20.5 116z" />
<glyph unicode="N" horiz-adv-x="1476" d="M-188 110q0 32 16 68q34 90 111.5 293t114 300.5t77.5 211.5q56 160 77 232q22 71 32 167q10 83 77 143q67 61 154 85q87 0 132 -17t60 -50.5t15 -90.5q0 -26 -2 -54q0 -28 -4 -85q0 -140 8 -195q10 -40 36 -156t50 -189t61 -146t97 -156q52 98 95 205.5t84 230.5l87 261 q24 68 56 195t60 199q28 110 111 111q65 0 122 -61.5t57 -141.5q0 -30 -9 -53q-6 -42 -23 -75q-8 -16 -36 -56q-50 -66 -88 -196q-37 -134 -70.5 -223.5t-81.5 -198.5t-75 -183t-56 -196q-6 -29 -16 -75t-24.5 -93t-34.5 -83t-44 -44q-26 -8 -79 -30t-87 -32t-74 -10 q-28 0 -56 6q-42 15 -71 62.5t-49 108.5t-38 118q-22 65 -52 117q-128 220 -220 448q-30 -66 -63 -140t-56 -136t-38 -132t-20 -146q0 -19 -1.5 -57.5t-4 -66.5t-8.5 -55q-38 -129 -131 -129q-67 0 -122 60q-56 58 -56 130z" />
<glyph unicode="O" horiz-adv-x="1671" d="M76 1026q128 235 301.5 398.5t396.5 211.5q98 20 182 21q116 0 228 -31.5t201 -99.5t137 -172q70 -152 70 -336q0 -212 -91 -408q-72 -159 -144.5 -267.5t-148.5 -178.5t-165 -116t-217 -89q-112 -39 -228 -39q-95 0 -185.5 27t-169.5 78t-141 123q-149 175 -149 421 q0 227 123 457zM246 606q0 -132 50 -239t118 -131q43 -18 100 -19q93 0 207.5 45.5t228.5 134.5t201 211q135 186 135 396q0 62 -12 126q-61 194 -283 195q-20 0 -61 -4q-82 -7 -184 -52t-205 -124t-179 -185t-102 -227q-14 -75 -14 -127z" />
<glyph unicode="P" horiz-adv-x="1446" d="M-184 64q0 98 78 212q12 18 51 103t96 205q36 76 76 170t94 220q53 127 75 173q12 33 30 63q-24 0 -40 7t-26 19t-18 26t-19 36q-27 50 -27 98q2 64 48 110t132 69q168 46 364 72t394 26h70q119 -3 198.5 -48.5t122 -114t54.5 -142.5q10 -54 10 -104q0 -209 -227 -380 q-141 -107 -272 -189q-132 -83 -296 -163q-232 -112 -382 -112q-68 0 -107 18q-36 -70 -93.5 -198t-91.5 -193q-22 -42 -38.5 -65t-32 -33.5t-51.5 -22.5t-41 -14q-13 -4 -19 -4q-41 0 -76.5 43t-35.5 113zM434 780q60 23 159 65.5t111 47.5q94 38 172.5 79.5t130 74.5 t121.5 84t84 61q38 26 70 47t55 42.5t23 37.5q0 21 -43 29q-67 4 -101 4q-270 0 -558 -90q-26 -36 -56 -93t-59 -124t-63 -152t-46 -113z" />
<glyph unicode="Q" horiz-adv-x="1669" d="M-43 596q1 212 105 410q82 152 188 283t239 225t285 126q86 18 178 19q116 0 229 -31t203 -99.5t138 -172.5q100 -220 100 -406q0 -154 -66 -296q-104 -228 -235 -378q87 -114 193 -216q16 -27 16 -64q0 -71 -62 -127.5t-137 -56.5q-48 0 -88 26q-22 16 -174 236 q-105 -60 -245 -107q-152 -51 -284 -51q-252 0 -409 186q-55 64 -94.5 145t-59.5 170t-20 179zM278 482q0 -101 28.5 -168.5t80.5 -85.5q38 -8 90 -9h3q221 0 392 145q-44 64 -108 152q-33 42 -33 113q0 100 65 155q66 58 142 58q88 0 116 -107q18 -63 82 -178l7 11 q86 144 124.5 247t38.5 223q0 76 -18 168q-31 102 -133 123q-40 7 -78 7q-31 0 -159 -11q-76 -7 -171 -59.5t-187.5 -143t-162 -205t-96.5 -239.5q-23 -98 -23 -196z" />
<glyph unicode="R" horiz-adv-x="1771" d="M-74 131q0 33 10 57q23 56 70 144q46 86 98 202q44 94 101.5 212t120 244t110.5 228q-55 32 -86 74q-44 58 -61 85t-17 53q0 50 92 92q30 15 156 43q125 29 203 45q142 36 255 52t218 16q146 0 360 -40q44 -8 86 -56t68 -120q26 -74 26 -152q0 -84 -32 -157 q-36 -84 -121 -170.5t-200 -168t-257 -162t-288 -150.5q64 -39 138.5 -63.5t153 -42.5t178.5 -42q104 0 105 -63q0 -36 -27.5 -78.5t-70.5 -74.5t-84 -38q-19 -4 -67 -4q-122 0 -282 40t-247 77q-54 22 -83.5 34.5t-69.5 26.5t-77 21.5t-73 7.5q-42 -52 -90 -136.5 t-70 -140.5q-55 -67 -112 -67h-2q-54 0 -93 54t-39 118zM538 738q70 28 202 98t153 82q429 216 531 364q8 8 8 18q0 6 -4.5 8t-11 3t-15.5 2q-80 6 -172 6h-7q-248 0 -464 -67q-38 -67 -72 -145.5t-70 -170.5q-36 -90 -78 -198z" />
<glyph unicode="S" horiz-adv-x="1665" d="M-8 196q0 62 26 122q38 88 62 88q12 0 37 -36t42 -55t50 -24q6 -2 26.5 -4.5t53.5 -2.5q140 0 315 50q138 38 247.5 84t199.5 106t180 142q1 26 -63 26q-48 0 -160 -19t-144 -19q-117 -5 -201.5 -17.5t-183.5 -32.5t-135 -22q-46 0 -108 49.5t-107 119t-45 119.5 q5 83 17.5 125.5t60.5 108.5q76 106 181 197t231 165t270 128q78 30 113 39.5t91 13t174 3.5q68 0 104 -10.5t63 -52t49 -133.5q14 -56 14 -100q0 -92 -76 -92q-31 0 -87.5 16t-66.5 16q-18 2 -56 2q-160 0 -302 -67q-220 -103 -376 -263q78 8 155 16t149 17t132 19 q33 4 63 4q94 0 214.5 -20t182.5 -46q52 -22 81 -83.5t49 -170.5q4 -28 4 -40q0 -116 -99 -235t-236 -211.5t-247 -135.5q-208 -80 -351 -112t-251 -32q-52 0 -205 21q-58 33 -97.5 98t-39.5 141z" />
<glyph unicode="T" horiz-adv-x="1274" d="M64 1432q14 50 47 66t103 18q69 4 87 6q60 10 180 33t202.5 37t172.5 22q381 30 432 30q56 0 108 -14q62 -4 101 -53t39 -107q0 -32 -16 -61q-67 -116 -152 -133q-40 -8 -92 -8q-30 0 -96 4t-113 4q-76 0 -131 -10q-12 -69 -58 -166.5t-159.5 -316.5t-194 -398 t-133.5 -357q-33 -53 -79 -86q-44 -32 -82 -32q-34 0 -56 30q-32 49 -32 136q0 40 18 164q186 568 418 997q-81 -8 -181 -33q-101 -24 -127 -24q-36 0 -65 22q-59 48 -100 113t-41 117z" />
<glyph unicode="U" horiz-adv-x="1573" d="M-100 215q6 113 28 185t121 276q303 618 393 821q2 4 25 62.5t44 86t50 27.5q50 0 117 -84q43 -51 43 -127q0 -104 -82 -227q-95 -184 -168.5 -332t-126 -269.5t-76.5 -209.5q350 150 709 234q18 44 74 169q55 125 85 193q34 78 80.5 195.5t78.5 194.5q33 78 57 124 q57 102 131 102q59 0 104 -60t45 -138q0 -50 -18 -88q-51 -111 -109.5 -224t-89.5 -177.5t-86 -200.5q-66 -164 -103 -263t-61 -188q-25 -89 -33 -176q-12 -122 -41 -182t-69 -60t-79 52.5t-61 138.5q0 106 21 210q-149 -42 -329 -116q-143 -60 -225.5 -103t-162.5 -112 q-16 -13 -34 -13q-43 0 -103.5 46t-104.5 112t-44 121z" />
<glyph unicode="V" horiz-adv-x="1489" d="M125 1401q4 201 96 201q34 0 80 -27q92 -56 127 -96.5t35 -98.5q-1 -46 -21 -118q-4 -46 -18 -150q-10 -108 -10 -200q0 -40 -1 -105t-1 -92q0 -77 7 -143t27 -144q54 75 128 175.5t129 174t103 138.5q50 65 114 151q122 167 218 279q50 54 93 100t94 114q58 76 129 76 q64 0 112 -58q48 -56 48 -138q0 -28 -6 -56q-32 -132 -203 -278q-55 -74 -137 -160q-252 -268 -449 -614q-29 -53 -57 -105t-65 -116.5t-69 -118.5q-28 -46 -89 -72t-129 -26q-100 0 -171 54q-71 52 -71 158q0 78 10 154q8 48 8 115q0 64 -6.5 129.5t-18 156.5t-18 162 t-6.5 143q0 68 -6 223t-6 212z" />
<glyph unicode="W" horiz-adv-x="1988" d="M-12 188q14 60 44 187t36 157q22 104 41 220t32 226t31 250q17 140 31 240q7 52 41 78q34 27 82 27q60 0 114 -35q76 -46 109 -86t33 -88q0 -34 -21 -88q-48 -124 -78.5 -229t-46.5 -200t-24 -200q179 303 276 435q64 86 110 148.5t89 127.5t77 131q66 123 181 123 q53 0 101 -28t78 -75t30 -102q0 -39 -14 -74q-40 -100 -58.5 -170t-24 -125.5t-18.5 -211.5q-4 -76 -4 -152q29 41 107 143.5t127 170.5t93 144t76 156q50 125 94 199q26 118 105 176q38 27 76 27q41 0 74.5 -33t52 -85t18.5 -108q0 -82 -36 -133q-31 -44 -63.5 -91.5 t-72 -106.5t-82.5 -122q-42 -63 -108 -157q-74 -106 -128 -214q-56 -108 -96 -220q-14 -38 -57 -169t-69 -191q-24 -53 -78 -93.5t-115 -40.5q-38 0 -76 18q-18 10 -56.5 20t-56.5 18q-92 36 -92 130q18 188 23 316q2 34 9.5 142t7.5 174q0 76 -9 134q-100 -112 -165.5 -198 t-117.5 -180.5t-94 -208.5q-10 -26 -35.5 -101.5t-46 -126.5t-44.5 -89q-50 -78 -128 -78q-38 0 -88 22q-98 46 -146 105t-50 165z" />
<glyph unicode="X" horiz-adv-x="1483" d="M-314 18q10 96 84 189q110 140 252 282.5t346 336.5q-142 246 -212 417q-72 104 -72 211q0 112 92 129q30 6 58 6q96 0 150 -57.5t54 -139.5q98 -184 214 -333q62 48 118.5 97t151 135.5t134.5 122.5t87 75q37 31 80 83.5t75 84t92 63.5q28 16 62 16q64 0 109 -61 t45 -147q0 -152 -134 -250q-26 -16 -89.5 -60t-143.5 -116q-64 -58 -117.5 -108t-112.5 -106.5t-103 -99.5q-42 -42 -64 -63q14 -60 55 -120.5t123 -166.5t108 -156q38 -74 38 -149q0 -86 -47 -142.5t-144 -56.5q-38 2 -59.5 27t-34 60t-25.5 71q-18 42 -54.5 91.5t-78 98.5 t-91.5 110.5t-75 101.5q-108 -78 -210.5 -162t-196.5 -181t-142 -186q-43 -79 -141 -79q-25 0 -82 4q-99 4 -99 128z" />
<glyph unicode="Y" horiz-adv-x="1259" d="M-28 76q0 62 26 124q33 77 80.5 136.5t127.5 141.5t120 132q-18 98 -96 312q-68 190 -152 420q-16 45 -16 75q0 42 20 72t54 45.5t75 15.5q74 0 139.5 -49t87.5 -137q17 -40 27 -94q11 -77 44 -187.5t69 -177.5q66 81 157 179t189.5 198.5t195.5 195t170 162.5 q34 30 72 31q40 0 78 -31.5t62 -82.5t24 -103q0 -62 -35 -108q-59 -76 -141 -138q-98 -76 -176 -160q-314 -326 -457 -495q-49 -58 -124 -134t-113 -117.5t-81 -103.5t-81 -149q-16 -36 -56 -73.5t-87.5 -62.5t-86.5 -25q-44 0 -68 32q-48 75 -48 156z" />
<glyph unicode="Z" horiz-adv-x="1374" d="M-94 213q0 97 47 147q29 30 68 68t80 77.5t102 98t129 127.5q304 313 557 565q-21 2 -61 2q-72 0 -158 -24q-93 -26 -113.5 -36t-100.5 -66q-42 -32 -94 -32t-99 32t-76 83t-29 103q0 92 86 141q68 25 147 45t194 44.5t187 41.5q137 32 233.5 45t227.5 13q52 0 98.5 -69 t69.5 -132q27 -71 27 -105q0 -69 -82 -112q-105 -57 -201.5 -130t-187.5 -157.5t-179 -173.5t-186 -191q-166 -166 -222 -229q176 57 368 95q46 9 82 18.5t59 13.5t55 4q12 0 74 -4q36 -2 80.5 -45t76 -104t31.5 -113q-8 -48 -109 -73t-207 -25q-117 -20 -205 -28 q-87 -8 -97 -9q-68 -11 -308 -131q-106 -56 -164 -56q-28 0 -48 11t-38.5 31.5t-49 66t-38.5 55.5q-26 40 -26 117z" />
<glyph unicode="[" horiz-adv-x="1808" d="M47 819q0 48 29 60t90 20q56 -5 123 -8t199 -7.5t261 -8.5q129 -5 299 -11q64 0 100 -36t36 -82q0 -70 -82 -70q-214 -16 -476 -16q-264 0 -499 16q-80 6 -80 143zM954 230q0 38 37 63q285 185 573 243q14 -4 44.5 -26t60.5 -78q11 -18 11 -41q0 -30 -19 -47.5t-31 -23.5 q-96 -40 -276 -112q-180 -74 -268 -104q-44 0 -88 41t-44 85zM1077 1409q1 26 15 49q45 45 98 45q50 0 84 -43q40 -54 130.5 -154t123 -137t55.5 -79q0 -58 -39 -91t-86 -33q-34 0 -53 19q-24 36 -121 131.5t-152 164.5t-55 128z" />
<glyph unicode="\" horiz-adv-x="811" d="M-37 1566q0 -8 4 -32q18 -80 57.5 -176t87.5 -193t114 -225q25 -49 85.5 -157.5t90.5 -164.5t67 -141q12 -27 67.5 -153t82.5 -189l45 -105q38 -64 67 -63q19 0 55 23q19 12 40 24.5t32.5 28t11.5 41.5q0 16 -10 49q-18 39 -62 129t-128 265t-113 236t-180 377 q-12 24 -66.5 132t-83.5 175t-39 119q-22 66 -90 66q-26 0 -72 -12q-35 -10 -49 -20t-14 -34z" />
<glyph unicode="]" horiz-adv-x="1741" d="M133 456q0 58 39 91t86 33q36 0 54 -19q24 -37 121.5 -133t151.5 -163.5t54 -127.5q-1 -26 -15 -49q-46 -45 -98 -45q-50 0 -84 43q-44 60 -118 141t-121.5 135t-69.5 94zM137 1194q0 29 18.5 47.5t30.5 24.5q42 18 143 58.5t208 83t194 72.5q44 0 87.5 -40.5t43.5 -83.5 q0 -38 -36 -64q-284 -186 -574 -244q-14 4 -44.5 27.5t-59.5 77.5q-10 19 -11 41zM512 817q0 70 82 70q216 16 475 16q258 0 500 -16q79 -7 79 -143q0 -48 -28.5 -60t-89.5 -20q-52 6 -149 10t-201.5 7t-243.5 7t-289 10q-64 0 -99.5 37t-35.5 82z" />
<glyph unicode="a" horiz-adv-x="1505" d="M-280 108q0 82 61 168q245 340 575 690q187 198 267.5 280t168.5 164q88 80 256 228q36 32 82 33h2q64 0 156 -69q76 -56 76 -124q0 -28 -6 -61q-27 -181 -52 -368t-47.5 -360.5t-41.5 -312t-45 -320.5q-20 -138 -113 -138q-59 0 -117 51t-68 109q0 39 7 72.5t21 79 t20 69.5q-115 -8 -224.5 -22.5t-213 -39.5t-203 -59t-197.5 -82q-34 -36 -51.5 -54.5t-28 -33.5t-26.5 -47q-38 -39 -92 -39q-66 0 -116 53t-50 133zM426 553q63 12 154 29.5t104 19.5q58 10 105 17t90 12t98 12q35 291 35 481q-80 -55 -177 -137.5t-157 -142.5 q-81 -80 -127.5 -135t-124.5 -156z" />
<glyph unicode="b" horiz-adv-x="1683" d="M-70 146q0 28 14 59q47 98 81 173q33 76 71 148q0 174 144 298q18 43 41 94.5t64.5 136.5t72.5 151q-70 22 -70 104q0 30 16 89q26 78 59 112.5t79 50.5t108 38q102 40 204 54t310 26q28 2 86 2q136 0 256.5 -21t190.5 -63q39 -22 69.5 -88t30.5 -146q-1 -160 -125 -270 q-131 -121 -262 -197q62 -22 88.5 -63.5t38.5 -133.5q0 -71 -30.5 -156.5t-87.5 -171t-139 -157.5q-81 -73 -179 -119q-204 -96 -385.5 -137t-441.5 -59q-82 0 -128 24.5t-90 83.5q-9 12 -36 42t-38.5 51t-11.5 45zM270 252q258 10 528 112q240 88 351 162q51 32 51 54 q0 28 -98 28q-36 0 -54 -2q-82 -6 -212 -6q-236 0 -424 -49q-14 -43 -70 -150.5t-72 -148.5zM568 950q142 26 220.5 44t190.5 58q38 14 148.5 48t180.5 59.5t122.5 58t52.5 66.5q-8 28 -83.5 46t-189.5 18q-274 0 -489 -94q-91 -158 -153 -304z" />
<glyph unicode="c" horiz-adv-x="1468" d="M-74 414q0 116 44.5 245.5t129.5 265t203 267.5q119 132 246.5 234t254 161t238.5 65q167 0 242.5 -59t75.5 -199q0 -124 -58 -321q-13 -48 -83.5 -80.5t-147.5 -32.5q-131 10 -131 144q0 64 35 146q1 12 7 26l7 14q0 6 -10 6q-3 0 -23 -4q-35 -8 -53 -10 q-69 -24 -173.5 -109t-208.5 -198t-190.5 -235t-125.5 -218q-59 -141 -59 -213q0 -47 32 -77q54 -50 158 -50q108 0 247 50t269 125.5t213 146.5q70 59 131 59q52 0 84.5 -40.5t32.5 -100.5q0 -126 -121 -209q-112 -76 -154 -103.5t-110 -63.5t-156 -69q-86 -33 -198 -63 q-110 -28 -195 -28q-142 0 -242.5 78.5t-171.5 248.5q-39 93 -39 201z" />
<glyph unicode="d" horiz-adv-x="1423" d="M-121 194q1 24 11 54l354 958q-42 30 -56 100q-4 18 -4 52q0 58 26 91t62 48t115 41q305 94 584 94q106 0 227 -12q118 -13 200 -55.5t110 -140.5q24 -86 24 -166q0 -200 -152 -394q-176 -224 -265 -329t-218 -207q-173 -142 -340 -222q-32 -16 -139 -65 q-106 -49 -174 -86q-34 -21 -82 -21q-64 0 -130 38.5t-109.5 99t-43.5 122.5zM215 334q122 32 272.5 117t294 199t261.5 241q117 127 177 237q48 88 48 122q0 29 -31 34q-66 14 -172 14q-77 0 -162.5 -8.5t-179 -29t-183.5 -54.5q-62 -121 -104 -237.5t-109.5 -322 t-111.5 -312.5z" />
<glyph unicode="e" horiz-adv-x="1507" d="M-178 90q0 38 22 82q18 46 58 133t79.5 174t65.5 152q146 369 262 585q-27 42 -27 82q0 62 64 115t184 107q20 6 171.5 48.5t187.5 49.5q69 16 268 24q49 10 107 10q126 0 203 -55t77 -127q0 -50 -43.5 -87.5t-128.5 -51.5q-60 -8 -206 -14q-180 -8 -472 -113 q-89 -102 -172 -264q64 17 158 42.5t166 42t150.5 30t160.5 20.5q76 -6 101 -10t54.5 -26.5t47.5 -72.5q6 -18 6 -34q0 -84 -110 -125q-90 -32 -272 -83.5t-280 -82.5t-212 -82q-14 -6 -27 -11.5t-29 -12t-30 -10t-29 -3.5q-7 0 -25 4q-49 -82 -106 -250q0 -14 10 -14 q8 0 40 10q32 8 56 12q85 14 295 76q76 24 132.5 37.5t101.5 21.5t98 17q31 6 69 6q78 0 134.5 -33t56.5 -79q0 -91 -209 -162q-71 -23 -164.5 -50.5t-159 -48t-136 -47t-132.5 -55.5q-181 -85 -266 -117q-22 -8 -53 -8q-62 0 -131.5 34t-117.5 92t-48 122z" />
<glyph unicode="f" horiz-adv-x="1396" d="M-144 133q0 44 11 70q10 48 16.5 75.5t12.5 47.5q14 50 82 204q256 568 300 670q-65 65 -65 127q0 47 33 95q29 40 107.5 73t125.5 47q47 13 154 43.5t166 44.5t130 23.5t148 9.5q35 0 107 -4q23 -9 64.5 -17t61.5 -16q96 -42 97 -127q0 -11 -4 -35q-22 -108 -185 -120 q-160 -14 -302 -46.5t-304 -103.5q-17 -30 -66 -94q-48 -64 -64 -104q-26 -64 -52 -122q406 130 676 162q88 0 135 -38q47 -36 47 -88q0 -58 -51 -91q-24 -16 -69.5 -35t-51.5 -22q-61 -29 -143.5 -58.5t-173 -61.5t-181 -70t-190.5 -90q-32 -16 -80 -17q-36 0 -80 14 q-29 -67 -65.5 -210t-40.5 -157q-4 -150 -94 -192q-30 -12 -58 -12q-45 0 -80.5 34t-54.5 87t-19 104z" />
<glyph unicode="g" horiz-adv-x="1665" d="M14 498q0 167 54 311q86 231 234 413t374 351q62 46 141 80.5t162 51.5t166 17q75 0 123 -10q84 -14 131 -69.5t47 -151.5q-8 -81 -29 -176t-64 -170.5t-110 -75.5q-29 1 -71 23q-92 53 -92 112q0 38 28 104q1 4 4 28l10 73q-36 0 -128 -44.5t-210.5 -133t-226.5 -207.5 q-66 -74 -129.5 -183t-110.5 -221t-61 -188q-10 -50 -10 -104q0 -78 33.5 -108t103.5 -30q104 2 236.5 57t249.5 140t179 172q-30 -4 -65 -17.5t-51 -17.5q-26 -8 -117 -16q-52 12 -99.5 48.5t-75.5 83t-28 87.5q0 28 14 47q34 26 66 35t86 12q118 6 224 35 q67 18 164.5 31.5t177.5 13.5q110 -1 124 -29q70 -126 70 -186q0 -66 -72 -80q-4 0 -57 -7t-80 -15q-39 -120 -113.5 -238.5t-173.5 -216.5t-217 -165q-117 -68 -241 -89q-40 -6 -78 -6q-90 0 -163 39.5t-133 110.5t-126 175q-70 112 -70 304z" />
<glyph unicode="h" horiz-adv-x="1534" d="M-240 47q14 78 38 132.5t72 140.5t70 134q64 141 114 236.5t149 280.5q133 255 209 497q28 90 75 133t101 43q66 0 116 -56t50 -140q0 -70 -33 -133q-20 -54 -43.5 -93.5t-65.5 -97.5t-59 -84q-12 -17 -59.5 -82t-75.5 -107.5t-52 -88.5q98 28 310 62q22 4 203 30t259 39 q62 123 116 232t96 216t63 211q14 64 47.5 96t77.5 32q40 0 79 -26.5t63 -75t24 -112.5q-35 -146 -108 -274q-22 -36 -45 -75t-44 -80t-43 -93q-58 -135 -101 -221t-107 -203.5t-106 -204.5t-81 -194q-26 -74 -45.5 -132t-38.5 -86t-49 -28q-24 1 -68 25q-67 39 -67 124 q0 62 33 158q46 131 88 207q9 14 23.5 55.5t16.5 47.5l2 6q-321 -55 -485 -102q-165 -48 -367 -156q-56 -86 -63 -166q-7 -55 -15 -86t-34 -74q-56 -94 -127 -94q-83 0 -103 129q-2 16 -5 49t-5 49z" />
<glyph unicode="i" horiz-adv-x="731" d="M-148 37q0 31 15 73q19 45 67 155.5t125 285.5t179 397q48 104 127.5 313t93.5 267q41 114 129 114q44 0 80 -30q38 -32 67 -102t29 -128q0 -12 -4 -32q-18 -77 -30 -99.5t-60 -93.5q-46 -71 -90 -161q-166 -348 -240 -525q-32 -78 -69.5 -148t-66.5 -127 q-28 -58 -60 -138q-29 -51 -48 -74.5t-43.5 -32.5t-66.5 -9q-30 7 -64 15.5t-52 26.5t-18 53z" />
<glyph unicode="j" horiz-adv-x="1544" d="M-110 326q0 75 44 147q54 90 113 90q67 0 139 -127q35 -64 102.5 -98t215.5 -70q40 -10 72 -10q60 0 109 25t109 71q68 65 97 119.5t88 196.5q38 91 62.5 157t39.5 113.5t31 106.5t33 114q8 25 8 35q-28 -4 -52.5 -5t-29.5 -1q-28 -2 -172 -62q-45 0 -90 29t-73 75 t-28 93q0 99 126 145q54 18 104 37.5t90 33t94 25.5q136 32 356 78q96 0 152 -59t56 -137t-54 -136t-160 -65v7q-6 -2 -14.5 -4t-13.5 -3q-51 -182 -89.5 -294.5t-78.5 -208.5q-40 -98 -164 -392q-80 -184 -213 -328q-65 -71 -134 -96.5t-157 -25.5q-50 0 -182 12 q-98 9 -176 35t-140.5 66.5t-119.5 98.5q-100 100 -100 212z" />
<glyph unicode="k" horiz-adv-x="1601" d="M-152 43q0 42 31 94q52 94 92.5 176t97.5 207t88 190.5t93 188.5q166 325 229 531q5 15 21 87t33 105t49 33q48 -1 137 -101q69 -80 69 -155q0 -48 -20 -109q-22 -74 -96 -236q166 98 248 144q266 150 425.5 266t200.5 193q54 31 94 31q96 0 96 -180q-4 -50 -25 -102 t-67 -102t-120 -82q-113 -70 -203 -134t-242 -177t-232.5 -170t-160.5 -104q104 -102 232 -162q57 -26 119.5 -54.5t115.5 -45.5t105 -21q164 0 164 -90q0 -43 -30 -94t-61 -84q-46 -49 -137 -49q-27 0 -61.5 5t-66.5 12q-32 8 -60 14q-65 14 -115 36t-133 66 q-82 46 -142 72q-33 14 -137.5 62t-154.5 68q-128 -187 -158 -245q-42 -66 -110 -123t-112 -57q-96 24 -96 96z" />
<glyph unicode="l" horiz-adv-x="1255" d="M-133 135q0 67 73 191q44 76 91 172t108 232.5t76 170.5q149 332 205 516q26 105 86 179q48 56 96 56q36 0 60 -30q94 -114 94 -194q0 -60 -56 -164q-97 -186 -150.5 -294t-92 -192t-78 -181t-113.5 -277q59 8 122 27.5t152.5 54t123.5 44.5q100 34 174 46q80 0 140 -26 t92 -68q32 -40 32 -86q0 -72 -74 -112q-72 -38 -204 -63q-187 -38 -314 -79q-128 -42 -262 -114q-80 -40 -121 -40q-23 0 -43 9t-45 25t-65 44q-107 67 -107 153z" />
<glyph unicode="m" horiz-adv-x="1915" d="M-168 190q0 98 41 152q91 192 178 346.5t170 282.5t196 295.5t175 263.5q54 84 76.5 109.5t58.5 25.5h1q41 0 144 -55q54 -27 79.5 -58.5t25.5 -83.5q0 -66 -47 -184q-38 -98 -58 -191t-28 -180t-12 -203q113 176 214.5 314t243.5 297q78 89 132 150t100 103 q47 42 104 76q34 14 72 15q55 0 104.5 -30.5t79 -77t29.5 -91.5q-5 -32 -39 -94q-36 -62 -56 -118q-34 -92 -55 -160t-33 -112t-34 -138.5t-48 -198.5q-50 -212 -50 -440q0 -61 2 -89q20 -74 20 -114q0 -54 -37 -81t-129 -27q-69 0 -126 34t-89.5 89t-32.5 108q0 9 4 37 q8 144 35.5 330.5t71.5 365.5l-19 8q-152 -174 -202 -254q-70 -106 -128.5 -214t-96.5 -187t-52 -111q-26 -51 -104 -51h-3q-84 0 -154 58.5t-70 156.5q-10 102 -11 222q1 172 17 350l-19 6q-61 -86 -182 -302q-48 -84 -78.5 -146.5t-44.5 -98t-30 -81.5l-24 -66 q-44 -122 -64 -160q-20 -39 -64 -39q-18 0 -46 10q-48 10 -78 79.5t-30 151.5z" />
<glyph unicode="n" horiz-adv-x="1648" d="M-94 194q0 54 22 88q22 72 48.5 146t53 143t82 207.5t66.5 165.5q140 364 262 551q18 36 63 59t101 23q74 0 136 -41q70 -48 101 -93t37 -87q7 -44 9 -134q0 -30 9.5 -85t22.5 -122t25 -133q14 -86 24.5 -148t26.5 -120q15 -58 43 -118q110 329 184 487q34 70 65 147.5 t67 170t60 148t52 103.5q14 86 86 86q37 0 76.5 -26.5t64.5 -74t25 -105.5q0 -42 -10 -74q-39 -49 -67.5 -96.5t-58 -110t-61 -132t-57.5 -122.5q-37 -76 -69 -162.5t-60.5 -177.5t-49.5 -159t-31 -97q-13 -74 -21.5 -121.5t-22.5 -83t-45 -63t-90 -49.5q-115 -44 -163 -44 q-51 0 -81.5 43t-60.5 152q-17 66 -55.5 181.5t-75.5 229.5t-65 217q-30 103 -48 199q-130 -210 -186 -386q-16 -49 -59 -150.5t-67 -186t-30 -198.5q-46 -99 -110 -99q-63 0 -116 82q-52 82 -52 170z" />
<glyph unicode="o" horiz-adv-x="1673" d="M-2 538q0 152 49 292q80 232 271 432q192 198 378 290q66 32 134 55.5t138.5 36.5t139.5 13h3q228 0 353 -149q63 -75 89.5 -106.5t49.5 -68.5t35 -79t12 -95q0 -71 -28 -191q-36 -147 -106 -288.5t-163 -268t-203 -227t-220 -160.5q-186 -98 -340 -98q-76 0 -151 19.5 t-171 58.5q-79 32 -140.5 110.5t-95.5 188.5q-34 109 -34 235zM301 417q0 -158 65 -187q68 -20 128 -21q217 0 442 258q86 98 164 221.5t132 257t70 264.5q0 92 -46 127q-48 35 -134 35q-26 0 -78 -4q-338 -32 -636 -544q-51 -90 -79 -199t-28 -208z" />
<glyph unicode="p" horiz-adv-x="1394" d="M-182.5 208q26.5 63 81.5 159q55 97 71 133q2 4 16 41.5t27.5 71t39.5 93.5q30 66 75 159t66.5 138t51.5 117q18 41 33 73.5t30 70.5q-55 46 -65 116q0 113 94 174t204 80t240 27q50 3 161 5t179 5q120 0 206 -42.5t134 -108.5q49 -66 64 -138q16 -90 16 -151 q0 -221 -184 -387q-95 -86 -176.5 -143t-158.5 -98t-210 -103q-51 -24 -143 -67t-178 -71t-152 -28q-72 0 -114 38q-44 -90 -68 -178q-34 -143 -90 -231q-52 -86 -107 -86h-2q-44 0 -103 57q-65 65 -65 149q0 62 26.5 125zM356 738q12 -6 35 -7q68 0 285 86q140 57 220 95 t143 78t167 114q42 32 77.5 79t35.5 83q0 42 -53 53q-135 8 -203 8h-8q-247 0 -451 -61q-44 -61 -87 -149.5t-87 -196.5t-74 -182z" />
<glyph unicode="q" horiz-adv-x="1767" d="M16 536q0 160 52 312q88 255 261 454.5t396 295.5q225 96 426 96q247 0 371 -152q56 -67 88 -128.5t45.5 -118.5t13.5 -115q0 -38 -8 -121q-11 -98 -52.5 -208t-102 -214.5t-134.5 -201.5t-156 -177q16 -61 40 -106.5t69 -114.5q27 -43 27 -95q0 -80 -54 -114 q-20 -12 -46 -12q-42 0 -100 22t-98 48q-46 50 -92 159q-12 -6 -23 -12.5t-19 -10.5t-12 -8q-108 -58 -192.5 -84t-160.5 -26q-113 0 -275 68q-78 32 -138 115.5t-93 201t-33 247.5zM324 426q0 -160 67 -194q40 -10 82 -11q171 1 365 179q-50 120 -66 149q-48 78 -70 124.5 t-22 84.5q0 48 37 76q49 38 125 38q75 0 139 -34t80 -86q5 -22 21 -78q108 146 174 279t82 269q0 96 -48 131t-137 35q-26 0 -80 -4q-110 -11 -216.5 -72.5t-212.5 -180.5t-212 -299q-52 -90 -80 -200t-28 -206z" />
<glyph unicode="r" horiz-adv-x="1581" d="M-194 114q0 22 6 40q12 74 67 172q80 135 125 239q49 112 71.5 163.5t72 163.5t76 172t81.5 186q-57 57 -57 151q0 103 74 141q19 10 59.5 22t60.5 23q26 14 84 29q56 16 88 22q212 38 361 38q97 0 186 -14t223 -44q62 -14 122.5 -68t98 -132t37.5 -160q0 -76 -34 -140 q-134 -246 -324 -374q-40 -28 -83.5 -51.5t-116 -60t-99.5 -50.5q58 -35 133.5 -87t141.5 -103.5t102 -86.5q70 -102 70 -211q0 -127 -101 -127q-71 0 -180 72q-155 142 -294 214.5t-327 90.5q-38 -6 -116 -6q-26 0 -78.5 1t-77.5 1h-43q-53 -102 -65 -176 q-18 -102 -60 -180q-48 -64 -110 -64q-44 0 -84.5 30t-65 76t-24.5 88zM366 725q107 20 242.5 58.5t212.5 72.5q377 168 531 360q10 10 10 25q0 41 -127 55q-14 2 -103 12.5t-137.5 14.5t-93.5 4q-137 0 -281 -45q-34 -58 -69 -131t-59 -127t-60 -141t-66 -158z" />
<glyph unicode="s" horiz-adv-x="1761" d="M-35 230q0 71 63 128q102 88 154 88q54 0 111 -92q61 -102 247 -102q62 0 140 12q113 22 224.5 63t212.5 109t163 156q0 6 -14.5 7.5t-18.5 2.5q-21 4 -161 8q-20 2 -62 2q-72 0 -137 -7.5t-155 -22.5q-90 -16 -148 -23q-102 -12 -134 -12q-96 0 -159 46.5t-127 168.5 q-22 44 -22 102q0 66 26 129t72 103q142 119 180 150t99.5 75t137 85.5t171.5 82.5q166 70 282 99q118 30 236 30q97 0 241 -22q170 -26 170 -168q0 -42 -14 -84q-29 -88 -75 -143t-98 -79t-100 -24q-10 0 -38 4q-130 28 -130 96q0 30 34 74l8 10q-244 0 -462 -121 q-156 -85 -247.5 -143.5t-136.5 -130.5q46 2 109 15t129 27.5t118 18.5q120 12 270 12q220 0 302 -30q168 -62 168 -258q-8 -96 -54 -195t-120 -182t-168 -135q-124 -71 -245 -125.5t-248 -87.5t-253 -33q-204 0 -390 90q-56 28 -103.5 92t-47.5 134z" />
<glyph unicode="t" horiz-adv-x="1274" d="M64 1432q14 50 47 66t103 18q69 4 87 6q60 10 180 33t202.5 37t172.5 22q381 30 432 30q56 0 108 -14q62 -4 101 -53t39 -107q0 -32 -16 -61q-67 -116 -152 -133q-40 -8 -92 -8q-30 0 -96 4t-113 4q-76 0 -131 -10q-12 -69 -58 -166.5t-159.5 -316.5t-194 -398 t-133.5 -357q-33 -53 -79 -86q-44 -32 -82 -32q-34 0 -56 30q-32 49 -32 136q0 40 18 164q186 568 418 997q-81 -8 -181 -33q-101 -24 -127 -24q-36 0 -65 22q-59 48 -100 113t-41 117z" />
<glyph unicode="u" horiz-adv-x="1519" d="M-160 270q0 36 8 58q18 56 42 112q28 66 114 224q45 84 148 259.5t164 289.5q62 115 104 225q4 9 22 66.5t37 87.5q37 50 101 50q59 0 103 -46t44 -133q0 -97 -69 -222q-36 -65 -113 -171t-101 -144q-46 -75 -86 -156.5t-78 -182.5t-67 -217q7 -12 25 -12q24 0 122 36 t142 50q58 18 143.5 47t126 43t100 31t111.5 27q30 82 86.5 220t96 239.5t74.5 207.5q34 105 58 215q15 66 50 98q36 32 82 32t94 -30t78 -78t30 -102q0 -42 -24 -86q-26 -58 -56 -116.5t-53 -102t-47 -85.5q-62 -108 -144 -310q-32 -80 -55 -137t-43.5 -116.5t-35 -123 t-23.5 -135.5q0 -124 -44 -182q-43 -58 -111 -58q-52 0 -103.5 29t-84.5 75q-34 48 -34 94q0 24 12 48q-62 -19 -150.5 -55t-121.5 -53q-152 -78 -225 -108q-25 -11 -149 -50q-33 -8 -46 -8q-68 0 -126.5 58t-93 143t-34.5 155z" />
<glyph unicode="v" horiz-adv-x="1472" d="M211 207q51 334 55 647q1 44 2 150t2.5 170t3.5 118q6 104 38 206q34 102 88 102q20 0 44 -19q104 -78 104 -217q-1 -25 -8 -80q-10 -61 -13 -115.5t-3 -150.5t-2 -150q-2 -44 -8 -130t-6 -175q95 138 186 251q92 112 205 240q54 60 114.5 123t162.5 164t152 151t112 118 q62 82 126 82q58 0 99 -61.5t43 -133.5q0 -71 -31.5 -144t-52.5 -108q-48 -50 -110.5 -103.5t-128.5 -110.5t-141.5 -132t-157.5 -172q-90 -106 -158 -191.5t-124.5 -168.5t-112 -175t-117.5 -204q-15 -22 -54 -23q-52 0 -126 42t-128.5 99.5t-54.5 100.5z" />
<glyph unicode="w" horiz-adv-x="1982" d="M-22 182q0 16 8 54q21 76 36.5 139t36.5 181t43 282q10 82 27 161t41 193t26 141q8 100 37 180.5t93 80.5q42 0 92 -40q56 -42 104 -111t48 -130q0 -25 -9 -45q-54 -155 -83.5 -275.5t-45.5 -252.5l18 -9q103 153 236 315q37 46 126.5 163t139.5 175t113 119q34 41 92 41 q52 0 108.5 -31t93.5 -76t37 -83q-9 -73 -40.5 -176t-45.5 -160q-14 -56 -26 -182q-3 -36 -5.5 -65.5t-4.5 -49.5l18 -6q31 52 74.5 127.5t82.5 143.5q39 66 81 134q32 52 106 177t120 197q48 72 106 140q43 46 96 46q44 0 82 -30.5t51 -80.5q10 -34 10 -76 q0 -117 -102 -229q-73 -78 -119 -139t-83.5 -121.5t-92.5 -147.5q-86 -132 -130.5 -205t-70.5 -121t-73 -146q-48 -98 -52 -106q-28 -62 -54.5 -118t-59.5 -106q-34 -50 -70 -66q-20 -10 -62 -10q-80 0 -156.5 45.5t-76.5 107.5q6 53 14 105t11.5 80.5t7.5 105.5 q8 198 8 471q-88 -92 -149.5 -170t-110 -153.5t-133.5 -217.5q-57 -95 -113 -193.5t-78 -126.5q-24 -28 -72 -62q-7 -4 -24 -5q-46 0 -113.5 24.5t-118 73.5t-50.5 119z" />
<glyph unicode="x" horiz-adv-x="1532" d="M-180 106q0 76 55 145t125 143.5t173 177t157 156.5t118 124q-4 10 -49.5 107t-81.5 173q-35 76 -75 152q-68 98 -68 170q0 98 127 104q62 0 113.5 -29t83.5 -72t38 -79q38 -96 154 -317q18 16 86 77t138 124.5t141 126.5t125 108q20 17 73 71t89 78.5t75 24.5 q24 0 43 -8q38 -16 68 -73.5t30 -129.5q0 -92 -57 -166q-20 -17 -137 -118q-118 -100 -194 -168q-208 -182 -306 -287q68 -184 193 -412q8 -14 20.5 -68.5t12.5 -107.5q0 -139 -119 -139q-42 6 -82.5 55t-58.5 91q-92 164 -220 372q-54 -46 -105 -90.5t-105 -92t-109 -99.5 t-113 -111l-75 -82.5t-72 -64t-78 -25.5q-56 3 -94.5 49t-38.5 110z" />
<glyph unicode="y" horiz-adv-x="1384" d="M20 76q0 24 10 66q29 66 73.5 136t100.5 144t122 157t116 144q-44 100 -132 309q-90 208 -122 281q-65 76 -65 147q0 48 29.5 76t87.5 28q26 0 59 -6q87 -18 131 -66.5t56 -92.5q19 -34 24.5 -55.5t18.5 -68.5t47 -137q26 -66 94 -174q56 70 190 231t226 276t157 217 q29 46 78 46q45 0 94.5 -41t82 -101t32.5 -116q0 -48 -24 -77q-41 -51 -57.5 -76t-32.5 -42t-99 -99q-75 -74 -151.5 -155t-134 -146t-114.5 -131q-57 -64 -141 -164q-276 -330 -358 -430q-30 -67 -111 -141.5t-141 -74.5q-8 0 -20 4q-126 41 -126 132z" />
<glyph unicode="z" horiz-adv-x="1495" d="M-20 137q0 56 29 123.5t65 103.5q18 20 72 83t112 123t158 149q112 101 164 149t116 107.5t160 148.5q96 88 190 174q-120 -6 -206 -22q-112 -24 -153 -37t-119 -65q-44 -38 -101 -38q-56 0 -109.5 35.5t-87.5 92t-34 112.5q0 63 46 111q112 44 225 73.5t275 59.5 q164 26 386 26q106 0 174 -8q104 0 134 -120q6 -22 29 -69.5t23 -78.5q0 -51 -57 -113t-203 -153q-129 -101 -248.5 -202.5t-218.5 -194.5t-145 -146q-32 -35 -126 -123l12 -18q122 42 252 78q138 36 267 36q94 0 143 -24q48 -27 83.5 -88.5t35.5 -122.5q-7 -26 -76.5 -42.5 t-231.5 -50.5t-292 -79q-153 -52 -227 -78.5t-138 -54.5t-104 -58q-30 -22 -64 -22q-32 0 -63 21t-63.5 57t-59.5 68q-24 27 -24 77z" />
<glyph unicode="&#xa9;" horiz-adv-x="1526" d="M64 600q0 204 96 400q50 101 121 190.5t157 160.5t183 121.5t194 73.5q67 16 135 16q152 0 282 -72q132 -72 190 -212q72 -174 71 -307q1 -135 -63 -285q-64 -152 -128.5 -253t-135 -167t-149.5 -110q-79 -42 -193 -86q-124 -48 -248 -48q-116 0 -217 44 q-101 42 -167 128q-128 172 -128 406zM240 696q0 -94 37.5 -184t95 -154t113.5 -84q51 -12 108 -12q144 0 296 66.5t253 224.5q70 108 111.5 235t41.5 246q0 59 -8 104q-28 104 -133 157t-229 53q-50 0 -102 -10q-78 -16 -167.5 -58t-173 -111.5t-148.5 -170t-89 -226.5 q-6 -36 -6 -76zM408 633q0 185 126 375q43 64 102 116.5t122.5 85t117.5 35.5q194 0 195 -143q0 -26 -17.5 -52t-41.5 -44q-24 -16 -52 -17q-44 0 -63 43q-9 4 -15 4q-7 0 -19.5 -4.5t-18.5 -5.5q-58 -24 -147.5 -130t-108.5 -188q-14 -54 -16 -80q0 -10 12 -32 q28 -39 78 -39q54 0 122 40t113 89q33 37 71 37t67 -33.5t32 -71.5q0 -46 -39 -78q-58 -50 -94 -78t-79 -52q-43 -26 -101 -44q-60 -16 -109 -16q-160 0 -215 150q-22 64 -22 133z" />
<glyph unicode="&#xad;" d="M84 782q0 24 6 56q30 36 97 54t201 34q132 17 152 20q196 29 250 29q70 -1 146 -21q67 -20 109.5 -65t42.5 -113q-2 -41 -60 -68.5t-136.5 -44t-187 -33.5t-139.5 -26q-58 -18 -114.5 -35.5t-99.5 -27t-79 -9.5q-66 0 -104 33q-20 36 -40.5 73.5t-32 71.5t-11.5 72z" />
<glyph unicode="&#xae;" horiz-adv-x="1526" d="M64 600q0 204 96 400q50 101 121 190.5t157 160.5t183 121.5t194 73.5q67 16 135 16q152 0 282 -72q132 -72 190 -212q72 -174 71 -307q1 -135 -63 -285q-64 -152 -128.5 -253t-135 -167t-149.5 -110q-79 -42 -193 -86q-124 -48 -248 -48q-116 0 -217 44 q-101 42 -167 128q-128 172 -128 406zM238 694q0 -94 38 -184t95 -153t115 -83q42 -14 108 -14q102 0 218.5 37.5t213.5 120.5q-96 66 -147 89.5t-137 37.5q-60 -1 -93 -3q-4 -26 -4.5 -73t-1.5 -61q-24 -66 -82 -66q-27 0 -47 17t-22 45q-6 22 -6 52q0 38 8.5 109t9.5 97 q1 66 5 163t5 135q-28 2 -45 21t-17 43q0 72 37 108t109 50q104 20 207 20q106 0 221 -18q49 -11 89 -71.5t40 -139.5q-15 -108 -107 -203q-16 -16 -110 -94q23 -16 50.5 -37t56.5 -46t57 -48q8 -10 18 -25q4 6 9.5 13.5t13.5 19.5q70 108 111.5 235t41.5 246q0 59 -8 104 q-20 73 -86.5 117.5t-153.5 62.5q-88 18 -178 18q-32 0 -86 -5q-103 -10 -215.5 -77.5t-201.5 -191.5t-121 -290q-8 -50 -8 -78zM654 874q0 -20 1 -59t1 -57q98 28 168 70q174 112 194 166q0 20 -86 20q-86 8 -129 8q-77 0 -143 -20q-6 -56 -6 -128z" />
<glyph unicode="&#xc6;" horiz-adv-x="2160" d="M-430 43q0 99 92 199q306 336 676 668q139 125 219.5 192t139.5 111.5t162 118.5t218 159q91 67 177 67q58 0 100 -36q10 -6 28 -6q38 0 72 12q154 30 231 52t109 27t160 15q117 0 175.5 -37t86.5 -115q20 -56 20 -92q0 -68 -82 -68q-13 0 -45.5 2.5t-62.5 2.5 q-74 -16 -178 -36.5t-169 -36.5t-185 -52q-22 -22 -42 -49t-38.5 -57t-34.5 -54q-21 -32 -43 -78q69 17 184.5 55t197.5 56.5t177 18.5q50 0 88 -27t58 -65t20 -66q-1 -8 -5 -19q-16 -37 -31 -58t-31.5 -31.5t-38.5 -17t-54 -16.5q-135 -38 -231 -64.5t-190 -56t-198 -69.5 q-58 -22 -75 -22q-13 0 -21 6q-60 -118 -116 -264q56 12 138 36.5t140 38.5q56 14 129 46.5t125 50.5t148 32q64 -4 92 -10.5t54 -29.5q26 -24 74 -83q8 -11 9 -23q0 -78 -344 -202q-116 -42 -191.5 -72t-199.5 -81t-184 -75t-116 -46q-26 -10 -61 -10q-61 0 -125 35.5 t-105.5 87t-41.5 93.5q0 6 4 23q16 38 50.5 104.5t43.5 86.5q-181 -22 -368 -84t-423 -162q-34 -31 -60 -54.5t-38 -36.5q-10 -13 -36 -47q-45 -38 -99 -38q-55 0 -95 43t-40 108zM379 549q116 38 219 55q268 48 324 56q12 0 12 -4q0 -7 -17.5 -18.5t-29.5 -17.5q0 1 1 2 l1 2v2v9q14 43 54 140t64.5 164t34.5 118q-84 -46 -215.5 -133.5t-189.5 -137.5q-160 -136 -258 -237z" />
<glyph unicode="&#xe6;" horiz-adv-x="2160" d="M-430 43q0 99 92 199q306 336 676 668q139 125 219.5 192t139.5 111.5t162 118.5t218 159q91 67 177 67q58 0 100 -36q10 -6 28 -6q38 0 72 12q154 30 231 52t109 27t160 15q117 0 175.5 -37t86.5 -115q20 -56 20 -92q0 -68 -82 -68q-13 0 -45.5 2.5t-62.5 2.5 q-74 -16 -178 -36.5t-169 -36.5t-185 -52q-22 -22 -42 -49t-38.5 -57t-34.5 -54q-21 -32 -43 -78q69 17 184.5 55t197.5 56.5t177 18.5q50 0 88 -27t58 -65t20 -66q-1 -8 -5 -19q-16 -37 -31 -58t-31.5 -31.5t-38.5 -17t-54 -16.5q-135 -38 -231 -64.5t-190 -56t-198 -69.5 q-58 -22 -75 -22q-13 0 -21 6q-60 -118 -116 -264q56 12 138 36.5t140 38.5q56 14 129 46.5t125 50.5t148 32q64 -4 92 -10.5t54 -29.5q26 -24 74 -83q8 -11 9 -23q0 -78 -344 -202q-116 -42 -191.5 -72t-199.5 -81t-184 -75t-116 -46q-26 -10 -61 -10q-61 0 -125 35.5 t-105.5 87t-41.5 93.5q0 6 4 23q16 38 50.5 104.5t43.5 86.5q-181 -22 -368 -84t-423 -162q-34 -31 -60 -54.5t-38 -36.5q-10 -13 -36 -47q-45 -38 -99 -38q-55 0 -95 43t-40 108zM379 549q116 38 219 55q268 48 324 56q12 0 12 -4q0 -7 -17.5 -18.5t-29.5 -17.5q0 1 1 2 l1 2v2v9q14 43 54 140t64.5 164t34.5 118q-84 -46 -215.5 -133.5t-189.5 -137.5q-160 -136 -258 -237z" />
<glyph unicode="&#xf7;" horiz-adv-x="1071" d="M56 733q0 54 12 113q30 36 85.5 56t117 29t149.5 17t106 10q48 8 134 33t106 29q51 10 84 10q92 0 129 -66q12 -64 12 -114q-2 -22 -16 -86q-2 -53 -55.5 -84t-123.5 -43.5t-169 -22.5t-127 -18q-17 -5 -84 -29.5t-117.5 -37.5t-91.5 -13q-65 0 -109 35q-42 82 -42 182z M250 158q0 58 24 119t60 102t64 41q-2 0 34 31t60 31q99 0 145.5 -47t46.5 -121q0 -70 -37 -143t-98 -121t-127 -48q-89 0 -130.5 43t-41.5 113zM416 1220q0 56 24 118.5t59 103.5t64 41q-4 0 33 31q38 30 62 30q98 0 145 -46q47 -48 47 -122q0 -70 -37 -143t-98 -120.5 t-127 -47.5q-89 0 -130.5 43.5t-41.5 111.5z" />
<glyph unicode="&#x2000;" horiz-adv-x="894" />
<glyph unicode="&#x2001;" horiz-adv-x="1788" />
<glyph unicode="&#x2002;" horiz-adv-x="894" />
<glyph unicode="&#x2003;" horiz-adv-x="1788" />
<glyph unicode="&#x2004;" horiz-adv-x="596" />
<glyph unicode="&#x2005;" horiz-adv-x="447" />
<glyph unicode="&#x2006;" horiz-adv-x="298" />
<glyph unicode="&#x2007;" horiz-adv-x="298" />
<glyph unicode="&#x2008;" horiz-adv-x="223" />
<glyph unicode="&#x2009;" horiz-adv-x="357" />
<glyph unicode="&#x200a;" horiz-adv-x="99" />
<glyph unicode="&#x2010;" d="M84 782q0 24 6 56q30 36 97 54t201 34q132 17 152 20q196 29 250 29q70 -1 146 -21q67 -20 109.5 -65t42.5 -113q-2 -41 -60 -68.5t-136.5 -44t-187 -33.5t-139.5 -26q-58 -18 -114.5 -35.5t-99.5 -27t-79 -9.5q-66 0 -104 33q-20 36 -40.5 73.5t-32 71.5t-11.5 72z" />
<glyph unicode="&#x2011;" d="M84 782q0 24 6 56q30 36 97 54t201 34q132 17 152 20q196 29 250 29q70 -1 146 -21q67 -20 109.5 -65t42.5 -113q-2 -41 -60 -68.5t-136.5 -44t-187 -33.5t-139.5 -26q-58 -18 -114.5 -35.5t-99.5 -27t-79 -9.5q-66 0 -104 33q-20 36 -40.5 73.5t-32 71.5t-11.5 72z" />
<glyph unicode="&#x2012;" d="M84 782q0 24 6 56q30 36 97 54t201 34q132 17 152 20q196 29 250 29q70 -1 146 -21q67 -20 109.5 -65t42.5 -113q-2 -41 -60 -68.5t-136.5 -44t-187 -33.5t-139.5 -26q-58 -18 -114.5 -35.5t-99.5 -27t-79 -9.5q-66 0 -104 33q-20 36 -40.5 73.5t-32 71.5t-11.5 72z" />
<glyph unicode="&#x2013;" horiz-adv-x="1193" d="M84 782q0 24 6 56q31 36 99 54t205 34q135 17 155 20q200 29 255 29q71 -1 149 -21q68 -20 111.5 -65t43.5 -113q-2 -41 -61 -68.5t-139 -44t-191 -33.5t-142 -26q-60 -18 -117.5 -35.5t-101.5 -27t-80 -9.5q-68 0 -106 33q-21 36 -42 73.5t-32.5 71.5t-11.5 72z" />
<glyph unicode="&#x2014;" horiz-adv-x="2217" d="M84 782q0 24 12 56q61 36 198 54t410 34q269 17 310 20q400 29 510 29q143 -1 298 -21q137 -20 223.5 -65t86.5 -113q-4 -41 -122.5 -68.5t-278.5 -44t-381.5 -33.5t-284.5 -26q-118 -18 -233.5 -35.5t-203 -27t-161.5 -9.5q-134 0 -212 33q-40 36 -82 73.5t-65.5 71.5 t-23.5 72z" />
<glyph unicode="&#x2018;" horiz-adv-x="432" d="M10 1532q0 59 58.5 97.5t134.5 58.5q45 16 71 16q54 0 77 -42t34 -120q16 -90 45 -242t31 -164q21 -110 21 -190q0 -22 2 -34q0 -58 -24 -78.5t-88 -20.5q-100 7 -151 80q-14 30 -23.5 60.5t-15 56t-12 69t-8.5 57.5q-24 143 -127 320q-25 44 -25 76z" />
<glyph unicode="&#x2019;" horiz-adv-x="841" d="M158 1098q4 41 6.5 68.5t13 60.5t38.5 78.5t77 107.5q46 58 54 113.5t12 107.5t30 74q38 35 88 35q66 0 162 -70q5 -19 29 -72.5t24 -86.5q-30 -82 -50 -117t-81 -125t-121 -197q-32 -58 -85 -92.5t-101 -34.5q-96 0 -96 150z" />
<glyph unicode="&#x201c;" horiz-adv-x="829" d="M10 1532q0 59 58.5 97.5t134.5 58.5q45 16 71 16q54 0 77 -42t34 -120q16 -90 45 -242t31 -164q21 -110 21 -190q0 -22 2 -34q0 -58 -24 -78.5t-88 -20.5q-100 7 -151 80q-14 30 -23.5 60.5t-15 56t-12 69t-8.5 57.5q-24 143 -127 320q-25 44 -25 76zM479 1556 q0 38 16 62t40.5 36t60.5 19q38 7 64 13q9 -4 56.5 -21t69.5 -45q35 -66 46.5 -109t17.5 -102q14 -139 60 -273q20 -57 20 -114q0 -34 -10 -66q-20 -68 -80 -67q-24 0 -54 16q-56 16 -92 53.5t-56 86.5t-39 136.5t-19 88.5q-23 92 -78 196q-23 42 -23 90z" />
<glyph unicode="&#x201d;" horiz-adv-x="1063" d="M104 1052q4 183 140 392q50 80 49 164q0 14 -1 34.5t-1 30.5q1 50 25 74q42 41 98 41q62 0 156 -52q10 -33 36.5 -84t26.5 -77q-22 -80 -45.5 -128.5t-89.5 -170.5q-65 -122 -111 -222q-28 -63 -82.5 -102.5t-104.5 -39.5q-96 0 -96 140zM576 1038q0 34 9.5 53t40 73 t60.5 136q28 74 34.5 141.5t10.5 103.5q4 37 31 63q50 52 120 51q59 0 142 -41q12 -32 51 -89t39 -75q-22 -77 -41 -110.5t-91.5 -146.5t-123.5 -214q-25 -51 -69.5 -80t-88.5 -29q-54 0 -89 42q-35 40 -35 122z" />
<glyph unicode="&#x2022;" horiz-adv-x="792" d="M60 631q0 62 22 129q18 54 44 96.5t53 75t53 64.5q44 54 92 86t82 32q114 0 190 -55t76 -158q0 -49 -23 -115q-51 -149 -149 -252q-98 -102 -216 -102q-104 0 -164 51t-60 148z" />
<glyph unicode="&#x2026;" horiz-adv-x="2672" d="M-18 92q0 54 23 112.5t57 97t63 38.5q6 0 62 26.5t79 26.5q79 0 116.5 -36.5t37.5 -96.5q0 -66 -40 -141t-104 -126t-130 -51q-164 0 -164 150zM901 70q0 54 24 112t59.5 99t63.5 45q12 2 23 9t25 20t26.5 19.5t26.5 6.5q102 0 151.5 -44t49.5 -114q0 -66 -39 -135.5 t-103 -115.5t-135 -46q-172 0 -172 144zM1816 121q0 35 15 75q22 60 70.5 121.5t80.5 61.5q4 0 48 20.5t65 20.5q98 0 145.5 -42t47.5 -110q0 -66 -40 -136.5t-105 -117.5t-134 -47q-80 0 -136.5 40t-56.5 114z" />
<glyph unicode="&#x202f;" horiz-adv-x="357" />
<glyph unicode="&#x205f;" horiz-adv-x="447" />
<glyph unicode="&#x2122;" horiz-adv-x="1575" d="M14 1360q0 40 11 54t49 38q336 102 530 102q54 0 78 -4q20 -14 25 -33t5 -65q-10 -86 -58 -104q-32 -10 -96.5 -11.5t-94.5 -9.5q-19 -152 -19 -379q0 -130 10 -192q-16 -92 -79 -96q-75 0 -97 73q-2 86 -7 213.5t-5 193.5q0 52 4 154q-23 -4 -72.5 -20t-78.5 -20 q-49 0 -77 39.5t-28 66.5zM628 798q23 103 49.5 196t68.5 227q42 135 65 209q6 54 35.5 80t71.5 26q39 0 72 -22q34 -22 42 -50q4 -12 4 -34q0 -160 41 -332q16 47 52.5 141.5t64.5 173.5q5 16 11.5 48t14.5 51q10 20 30 40q28 18 69 19q42 0 77.5 -18t45.5 -52q6 -19 6 -39 q0 -9 -2 -31.5t-2 -40.5q2 -63 5.5 -104.5t9 -89.5t13.5 -116q16 -136 48 -271q4 -14 4 -43q-4 -62 -54 -80q-24 -10 -44 -10q-62 0 -80 70q-36 142 -58 311q-66 -175 -82 -229q-19 -68 -45 -90q-34 -32 -84 -32q-58 0 -94 56q-8 51 -17.5 94.5t-23.5 98.5t-28 116 q-20 -61 -44 -143q-8 -30 -17 -87.5t-29 -121.5q-42 -53 -91 -53q-21 0 -33 4q-72 2 -72 128z" />
<glyph unicode="&#x25fc;" horiz-adv-x="1670" d="M0 0v1670h1670v-1670h-1670z" />
</font>
</defs>
</svg>
